# MagicaVoxel @ Ephtracy

# group
o 

# material
mtllib arenero.mtl
usemtl palette

# normals
vn -1 0 0
vn 1 0 0
vn 0 0 1
vn 0 0 -1
vn 0 -1 0
vn 0 1 0

# texcoords
vt 0.974609 0.5
vt 0.990234 0.5

# verts
v 1.6 2.1 -1.2
v 1.6 2.1 -3.4
v 1.6 2.4 -1.2
v 1.6 2.4 -3.4
v 1.7 2 -1.3
v 1.7 2 -3.3
v 1.7 2.1 -1.3
v 1.7 2.1 -3.3
v 1.9 2.2 -2.6
v 1.9 2.2 -3.1
v 1.9 2.3 -2.2
v 1.9 2.3 -2.3
v 1.9 2.3 -2.6
v 1.9 2.3 -3.1
v 1.9 2.4 -2.2
v 1.9 2.4 -2.3
v 2 2.3 -2.7
v 2 2.3 -3
v 2 2.4 -2.7
v 2 2.4 -3
v 2.2 2.2 -1.7
v 2.2 2.2 -2.2
v 2.2 2.3 -1.7
v 2.2 2.3 -2.2
v 2.3 2.3 -1.8
v 2.3 2.3 -2.1
v 2.3 2.4 -1.8
v 2.3 2.4 -2.1
v 2.9 2.2 -2.2
v 2.9 2.2 -2.7
v 2.9 2.3 -2.2
v 2.9 2.3 -2.7
v 3 2.3 -2.3
v 3 2.3 -2.6
v 3 2.4 -2.3
v 3 2.4 -2.6
v 3.1 2.2 -1.7
v 3.1 2.2 -2
v 3.1 2.3 -1.7
v 3.1 2.3 -2
v 3.2 2.3 -1.8
v 3.2 2.3 -1.9
v 3.2 2.4 -1.8
v 3.2 2.4 -1.9
v 3.3 2.2 -2.9
v 3.3 2.2 -3.2
v 3.3 2.3 -2.9
v 3.3 2.3 -3.2
v 3.4 2.3 -3
v 3.4 2.3 -3.1
v 3.4 2.4 -3
v 3.4 2.4 -3.1
v 3.6 2.2 -1.4
v 3.6 2.2 -2.9
v 3.6 2.3 -2.9
v 3.6 2.3 -3.2
v 3.6 2.4 -1.4
v 3.6 2.4 -3.2
v 1.8 2.2 -1.4
v 1.8 2.2 -2.1
v 1.8 2.2 -2.4
v 1.8 2.2 -3.2
v 1.8 2.3 -2.1
v 1.8 2.3 -2.4
v 1.8 2.4 -1.4
v 1.8 2.4 -3.2
v 2 2.3 -2.2
v 2 2.3 -2.3
v 2 2.4 -2.2
v 2 2.4 -2.3
v 2.1 2.2 -2.1
v 2.1 2.2 -2.4
v 2.1 2.3 -2.1
v 2.1 2.3 -2.4
v 2.3 2.3 -2.7
v 2.3 2.3 -3
v 2.3 2.4 -2.7
v 2.3 2.4 -3
v 2.4 2.2 -2.6
v 2.4 2.2 -3.1
v 2.4 2.3 -2.6
v 2.4 2.3 -3.1
v 2.6 2.3 -1.8
v 2.6 2.3 -2.1
v 2.6 2.4 -1.8
v 2.6 2.4 -2.1
v 2.7 2.2 -1.7
v 2.7 2.2 -2.2
v 2.7 2.3 -1.7
v 2.7 2.3 -2.2
v 3.3 2.3 -1.8
v 3.3 2.3 -1.9
v 3.3 2.3 -2.3
v 3.3 2.3 -2.6
v 3.3 2.4 -1.8
v 3.3 2.4 -1.9
v 3.3 2.4 -2.3
v 3.3 2.4 -2.6
v 3.4 2.2 -1.7
v 3.4 2.2 -2
v 3.4 2.2 -2.2
v 3.4 2.2 -2.7
v 3.4 2.3 -1.7
v 3.4 2.3 -2
v 3.4 2.3 -2.2
v 3.4 2.3 -2.7
v 3.5 2.3 -3
v 3.5 2.3 -3.1
v 3.5 2.4 -3
v 3.5 2.4 -3.1
v 3.7 2 -1.3
v 3.7 2 -3.3
v 3.7 2.1 -1.3
v 3.7 2.1 -3.3
v 3.8 2.1 -1.2
v 3.8 2.1 -3.4
v 3.8 2.4 -1.2
v 3.8 2.4 -3.4
v 1.6 2.1 -1.2
v 1.6 2.4 -1.2
v 3.8 2.1 -1.2
v 3.8 2.4 -1.2
v 1.7 2 -1.3
v 1.7 2.1 -1.3
v 3.7 2 -1.3
v 3.7 2.1 -1.3
v 2.2 2.2 -1.7
v 2.2 2.3 -1.7
v 2.7 2.2 -1.7
v 2.7 2.3 -1.7
v 3.1 2.2 -1.7
v 3.1 2.3 -1.7
v 3.4 2.2 -1.7
v 3.4 2.3 -1.7
v 2.3 2.3 -1.8
v 2.3 2.4 -1.8
v 2.6 2.3 -1.8
v 2.6 2.4 -1.8
v 3.2 2.3 -1.8
v 3.2 2.4 -1.8
v 3.3 2.3 -1.8
v 3.3 2.4 -1.8
v 1.8 2.2 -2.1
v 1.8 2.3 -2.1
v 2.1 2.2 -2.1
v 2.1 2.3 -2.1
v 1.9 2.3 -2.2
v 1.9 2.4 -2.2
v 2 2.3 -2.2
v 2 2.4 -2.2
v 2.9 2.2 -2.2
v 2.9 2.3 -2.2
v 3.4 2.2 -2.2
v 3.4 2.3 -2.2
v 3 2.3 -2.3
v 3 2.4 -2.3
v 3.3 2.3 -2.3
v 3.3 2.4 -2.3
v 1.9 2.2 -2.6
v 1.9 2.3 -2.6
v 2.4 2.2 -2.6
v 2.4 2.3 -2.6
v 2 2.3 -2.7
v 2 2.4 -2.7
v 2.3 2.3 -2.7
v 2.3 2.4 -2.7
v 3.3 2.2 -2.9
v 3.3 2.3 -2.9
v 3.6 2.2 -2.9
v 3.6 2.3 -2.9
v 3.4 2.3 -3
v 3.4 2.4 -3
v 3.5 2.3 -3
v 3.5 2.4 -3
v 1.8 2.2 -3.2
v 1.8 2.4 -3.2
v 3.3 2.2 -3.2
v 3.3 2.3 -3.2
v 3.6 2.3 -3.2
v 3.6 2.4 -3.2
v 1.8 2.2 -1.4
v 1.8 2.4 -1.4
v 3.6 2.2 -1.4
v 3.6 2.4 -1.4
v 3.2 2.3 -1.9
v 3.2 2.4 -1.9
v 3.3 2.3 -1.9
v 3.3 2.4 -1.9
v 3.1 2.2 -2
v 3.1 2.3 -2
v 3.4 2.2 -2
v 3.4 2.3 -2
v 2.3 2.3 -2.1
v 2.3 2.4 -2.1
v 2.6 2.3 -2.1
v 2.6 2.4 -2.1
v 2.2 2.2 -2.2
v 2.2 2.3 -2.2
v 2.7 2.2 -2.2
v 2.7 2.3 -2.2
v 1.9 2.3 -2.3
v 1.9 2.4 -2.3
v 2 2.3 -2.3
v 2 2.4 -2.3
v 1.8 2.2 -2.4
v 1.8 2.3 -2.4
v 2.1 2.2 -2.4
v 2.1 2.3 -2.4
v 3 2.3 -2.6
v 3 2.4 -2.6
v 3.3 2.3 -2.6
v 3.3 2.4 -2.6
v 2.9 2.2 -2.7
v 2.9 2.3 -2.7
v 3.4 2.2 -2.7
v 3.4 2.3 -2.7
v 2 2.3 -3
v 2 2.4 -3
v 2.3 2.3 -3
v 2.3 2.4 -3
v 1.9 2.2 -3.1
v 1.9 2.3 -3.1
v 2.4 2.2 -3.1
v 2.4 2.3 -3.1
v 3.4 2.3 -3.1
v 3.4 2.4 -3.1
v 3.5 2.3 -3.1
v 3.5 2.4 -3.1
v 1.7 2 -3.3
v 1.7 2.1 -3.3
v 3.7 2 -3.3
v 3.7 2.1 -3.3
v 1.6 2.1 -3.4
v 1.6 2.4 -3.4
v 3.8 2.1 -3.4
v 3.8 2.4 -3.4
v 1.7 2 -1.3
v 3.7 2 -1.3
v 1.7 2 -3.3
v 3.7 2 -3.3
v 1.6 2.1 -1.2
v 3.8 2.1 -1.2
v 1.7 2.1 -1.3
v 3.7 2.1 -1.3
v 1.7 2.1 -3.3
v 3.7 2.1 -3.3
v 1.6 2.1 -3.4
v 3.8 2.1 -3.4
v 1.8 2.2 -1.4
v 3.6 2.2 -1.4
v 2.2 2.2 -1.7
v 2.7 2.2 -1.7
v 3.1 2.2 -1.7
v 3.4 2.2 -1.7
v 3.1 2.2 -2
v 3.4 2.2 -2
v 1.8 2.2 -2.1
v 2.1 2.2 -2.1
v 2.2 2.2 -2.2
v 2.7 2.2 -2.2
v 2.9 2.2 -2.2
v 3.4 2.2 -2.2
v 1.8 2.2 -2.4
v 2.1 2.2 -2.4
v 1.9 2.2 -2.6
v 2.4 2.2 -2.6
v 2.9 2.2 -2.7
v 3.4 2.2 -2.7
v 3.3 2.2 -2.9
v 3.6 2.2 -2.9
v 1.9 2.2 -3.1
v 2.4 2.2 -3.1
v 1.8 2.2 -3.2
v 3.3 2.2 -3.2
v 2.2 2.3 -1.7
v 2.7 2.3 -1.7
v 3.1 2.3 -1.7
v 3.4 2.3 -1.7
v 2.3 2.3 -1.8
v 2.6 2.3 -1.8
v 3.2 2.3 -1.8
v 3.3 2.3 -1.8
v 3.2 2.3 -1.9
v 3.3 2.3 -1.9
v 3.1 2.3 -2
v 3.4 2.3 -2
v 1.8 2.3 -2.1
v 2.1 2.3 -2.1
v 2.3 2.3 -2.1
v 2.6 2.3 -2.1
v 1.9 2.3 -2.2
v 2 2.3 -2.2
v 2.2 2.3 -2.2
v 2.7 2.3 -2.2
v 2.9 2.3 -2.2
v 3.4 2.3 -2.2
v 1.9 2.3 -2.3
v 2 2.3 -2.3
v 3 2.3 -2.3
v 3.3 2.3 -2.3
v 1.8 2.3 -2.4
v 2.1 2.3 -2.4
v 1.9 2.3 -2.6
v 2.4 2.3 -2.6
v 3 2.3 -2.6
v 3.3 2.3 -2.6
v 2 2.3 -2.7
v 2.3 2.3 -2.7
v 2.9 2.3 -2.7
v 3.4 2.3 -2.7
v 3.3 2.3 -2.9
v 3.6 2.3 -2.9
v 2 2.3 -3
v 2.3 2.3 -3
v 3.4 2.3 -3
v 3.5 2.3 -3
v 1.9 2.3 -3.1
v 2.4 2.3 -3.1
v 3.4 2.3 -3.1
v 3.5 2.3 -3.1
v 3.3 2.3 -3.2
v 3.6 2.3 -3.2
v 1.6 2.4 -1.2
v 3.8 2.4 -1.2
v 1.8 2.4 -1.4
v 3.6 2.4 -1.4
v 2.3 2.4 -1.8
v 2.6 2.4 -1.8
v 3.2 2.4 -1.8
v 3.3 2.4 -1.8
v 3.2 2.4 -1.9
v 3.3 2.4 -1.9
v 2.3 2.4 -2.1
v 2.6 2.4 -2.1
v 1.9 2.4 -2.2
v 2 2.4 -2.2
v 1.9 2.4 -2.3
v 2 2.4 -2.3
v 3 2.4 -2.3
v 3.3 2.4 -2.3
v 3 2.4 -2.6
v 3.3 2.4 -2.6
v 2 2.4 -2.7
v 2.3 2.4 -2.7
v 2 2.4 -3
v 2.3 2.4 -3
v 3.4 2.4 -3
v 3.5 2.4 -3
v 3.4 2.4 -3.1
v 3.5 2.4 -3.1
v 1.8 2.4 -3.2
v 3.6 2.4 -3.2
v 1.6 2.4 -3.4
v 3.8 2.4 -3.4

# faces
f 3/2/1 2/2/1 1/2/1
f 4/2/1 2/2/1 3/2/1
f 7/2/1 6/2/1 5/2/1
f 8/2/1 6/2/1 7/2/1
f 13/1/1 10/1/1 9/1/1
f 14/1/1 10/1/1 13/1/1
f 15/1/1 12/1/1 11/1/1
f 16/1/1 12/1/1 15/1/1
f 19/1/1 18/1/1 17/1/1
f 20/1/1 18/1/1 19/1/1
f 23/1/1 22/1/1 21/1/1
f 24/1/1 22/1/1 23/1/1
f 27/1/1 26/1/1 25/1/1
f 28/1/1 26/1/1 27/1/1
f 31/1/1 30/1/1 29/1/1
f 32/1/1 30/1/1 31/1/1
f 35/1/1 34/1/1 33/1/1
f 36/1/1 34/1/1 35/1/1
f 39/1/1 38/1/1 37/1/1
f 40/1/1 38/1/1 39/1/1
f 43/1/1 42/1/1 41/1/1
f 44/1/1 42/1/1 43/1/1
f 47/1/1 46/1/1 45/1/1
f 48/1/1 46/1/1 47/1/1
f 51/1/1 50/1/1 49/1/1
f 52/1/1 50/1/1 51/1/1
f 55/2/1 54/2/1 53/2/1
f 57/2/1 55/2/1 53/2/1
f 57/2/1 56/2/1 55/2/1
f 58/2/1 56/2/1 57/2/1
f 59/2/2 60/2/2 63/2/2
f 61/2/2 62/2/2 64/2/2
f 59/2/2 63/2/2 65/2/2
f 63/2/2 64/2/2 65/2/2
f 64/2/2 62/2/2 66/2/2
f 65/2/2 64/2/2 66/2/2
f 67/1/2 68/1/2 69/1/2
f 69/1/2 68/1/2 70/1/2
f 71/1/2 72/1/2 73/1/2
f 73/1/2 72/1/2 74/1/2
f 75/1/2 76/1/2 77/1/2
f 77/1/2 76/1/2 78/1/2
f 79/1/2 80/1/2 81/1/2
f 81/1/2 80/1/2 82/1/2
f 83/1/2 84/1/2 85/1/2
f 85/1/2 84/1/2 86/1/2
f 87/1/2 88/1/2 89/1/2
f 89/1/2 88/1/2 90/1/2
f 91/1/2 92/1/2 95/1/2
f 95/1/2 92/1/2 96/1/2
f 93/1/2 94/1/2 97/1/2
f 97/1/2 94/1/2 98/1/2
f 99/1/2 100/1/2 103/1/2
f 103/1/2 100/1/2 104/1/2
f 101/1/2 102/1/2 105/1/2
f 105/1/2 102/1/2 106/1/2
f 107/1/2 108/1/2 109/1/2
f 109/1/2 108/1/2 110/1/2
f 111/2/2 112/2/2 113/2/2
f 113/2/2 112/2/2 114/2/2
f 115/2/2 116/2/2 117/2/2
f 117/2/2 116/2/2 118/2/2
f 121/2/3 120/2/3 119/2/3
f 122/2/3 120/2/3 121/2/3
f 125/2/3 124/2/3 123/2/3
f 126/2/3 124/2/3 125/2/3
f 129/1/3 128/1/3 127/1/3
f 130/1/3 128/1/3 129/1/3
f 133/1/3 132/1/3 131/1/3
f 134/1/3 132/1/3 133/1/3
f 137/1/3 136/1/3 135/1/3
f 138/1/3 136/1/3 137/1/3
f 141/1/3 140/1/3 139/1/3
f 142/1/3 140/1/3 141/1/3
f 145/1/3 144/1/3 143/1/3
f 146/1/3 144/1/3 145/1/3
f 149/1/3 148/1/3 147/1/3
f 150/1/3 148/1/3 149/1/3
f 153/1/3 152/1/3 151/1/3
f 154/1/3 152/1/3 153/1/3
f 157/1/3 156/1/3 155/1/3
f 158/1/3 156/1/3 157/1/3
f 161/1/3 160/1/3 159/1/3
f 162/1/3 160/1/3 161/1/3
f 165/1/3 164/1/3 163/1/3
f 166/1/3 164/1/3 165/1/3
f 169/1/3 168/1/3 167/1/3
f 170/1/3 168/1/3 169/1/3
f 173/1/3 172/1/3 171/1/3
f 174/1/3 172/1/3 173/1/3
f 177/2/3 176/2/3 175/2/3
f 178/2/3 176/2/3 177/2/3
f 179/2/3 176/2/3 178/2/3
f 180/2/3 176/2/3 179/2/3
f 181/2/4 182/2/4 183/2/4
f 183/2/4 182/2/4 184/2/4
f 185/1/4 186/1/4 187/1/4
f 187/1/4 186/1/4 188/1/4
f 189/1/4 190/1/4 191/1/4
f 191/1/4 190/1/4 192/1/4
f 193/1/4 194/1/4 195/1/4
f 195/1/4 194/1/4 196/1/4
f 197/1/4 198/1/4 199/1/4
f 199/1/4 198/1/4 200/1/4
f 201/1/4 202/1/4 203/1/4
f 203/1/4 202/1/4 204/1/4
f 205/1/4 206/1/4 207/1/4
f 207/1/4 206/1/4 208/1/4
f 209/1/4 210/1/4 211/1/4
f 211/1/4 210/1/4 212/1/4
f 213/1/4 214/1/4 215/1/4
f 215/1/4 214/1/4 216/1/4
f 217/1/4 218/1/4 219/1/4
f 219/1/4 218/1/4 220/1/4
f 221/1/4 222/1/4 223/1/4
f 223/1/4 222/1/4 224/1/4
f 225/1/4 226/1/4 227/1/4
f 227/1/4 226/1/4 228/1/4
f 229/2/4 230/2/4 231/2/4
f 231/2/4 230/2/4 232/2/4
f 233/2/4 234/2/4 235/2/4
f 235/2/4 234/2/4 236/2/4
f 239/2/5 238/2/5 237/2/5
f 240/2/5 238/2/5 239/2/5
f 243/2/5 242/2/5 241/2/5
f 244/2/5 242/2/5 243/2/5
f 245/2/5 243/2/5 241/2/5
f 246/2/5 242/2/5 244/2/5
f 247/2/5 245/2/5 241/2/5
f 247/2/5 246/2/5 245/2/5
f 248/2/5 242/2/5 246/2/5
f 248/2/5 246/2/5 247/2/5
f 249/1/6 250/1/6 251/1/6
f 251/1/6 250/1/6 252/1/6
f 252/1/6 250/1/6 253/1/6
f 253/1/6 250/1/6 254/1/6
f 252/1/6 253/1/6 255/1/6
f 254/1/6 250/1/6 256/1/6
f 249/1/6 251/1/6 257/1/6
f 257/1/6 251/1/6 258/1/6
f 258/1/6 251/1/6 259/1/6
f 255/1/6 256/1/6 260/1/6
f 252/1/6 255/1/6 260/1/6
f 260/1/6 256/1/6 261/1/6
f 256/1/6 250/1/6 262/1/6
f 261/1/6 256/1/6 262/1/6
f 258/1/6 259/1/6 264/1/6
f 260/1/6 261/1/6 264/1/6
f 259/1/6 260/1/6 264/1/6
f 263/1/6 264/1/6 265/1/6
f 264/1/6 261/1/6 266/1/6
f 265/1/6 264/1/6 266/1/6
f 266/1/6 261/1/6 267/1/6
f 262/1/6 250/1/6 268/1/6
f 267/1/6 268/1/6 269/1/6
f 268/1/6 250/1/6 270/1/6
f 269/1/6 268/1/6 270/1/6
f 263/1/6 265/1/6 271/1/6
f 266/1/6 267/1/6 272/1/6
f 267/1/6 269/1/6 272/1/6
f 263/1/6 271/1/6 273/1/6
f 271/1/6 272/1/6 273/1/6
f 272/1/6 269/1/6 274/1/6
f 273/1/6 272/1/6 274/1/6
f 275/1/6 276/1/6 279/1/6
f 279/1/6 276/1/6 280/1/6
f 277/1/6 278/1/6 281/1/6
f 281/1/6 278/1/6 282/1/6
f 277/1/6 281/1/6 283/1/6
f 282/1/6 278/1/6 284/1/6
f 277/1/6 283/1/6 285/1/6
f 283/1/6 284/1/6 285/1/6
f 284/1/6 278/1/6 286/1/6
f 285/1/6 284/1/6 286/1/6
f 275/1/6 279/1/6 289/1/6
f 280/1/6 276/1/6 290/1/6
f 287/1/6 288/1/6 291/1/6
f 291/1/6 288/1/6 292/1/6
f 275/1/6 289/1/6 293/1/6
f 289/1/6 290/1/6 293/1/6
f 290/1/6 276/1/6 294/1/6
f 293/1/6 290/1/6 294/1/6
f 287/1/6 291/1/6 297/1/6
f 292/1/6 288/1/6 298/1/6
f 295/1/6 296/1/6 299/1/6
f 299/1/6 296/1/6 300/1/6
f 287/1/6 297/1/6 301/1/6
f 297/1/6 298/1/6 301/1/6
f 298/1/6 288/1/6 302/1/6
f 301/1/6 298/1/6 302/1/6
f 295/1/6 299/1/6 305/1/6
f 300/1/6 296/1/6 306/1/6
f 303/1/6 304/1/6 307/1/6
f 307/1/6 304/1/6 308/1/6
f 295/1/6 305/1/6 309/1/6
f 305/1/6 306/1/6 309/1/6
f 306/1/6 296/1/6 310/1/6
f 309/1/6 306/1/6 310/1/6
f 303/1/6 307/1/6 313/1/6
f 308/1/6 304/1/6 314/1/6
f 311/1/6 312/1/6 315/1/6
f 315/1/6 312/1/6 316/1/6
f 303/1/6 313/1/6 317/1/6
f 313/1/6 314/1/6 317/1/6
f 314/1/6 304/1/6 318/1/6
f 317/1/6 314/1/6 318/1/6
f 311/1/6 315/1/6 319/1/6
f 316/1/6 312/1/6 320/1/6
f 311/1/6 319/1/6 321/1/6
f 319/1/6 320/1/6 321/1/6
f 320/1/6 312/1/6 322/1/6
f 321/1/6 320/1/6 322/1/6
f 323/2/6 324/2/6 325/2/6
f 325/2/6 324/2/6 326/2/6
f 329/1/6 330/1/6 331/1/6
f 331/1/6 330/1/6 332/1/6
f 327/1/6 328/1/6 333/1/6
f 333/1/6 328/1/6 334/1/6
f 335/1/6 336/1/6 337/1/6
f 337/1/6 336/1/6 338/1/6
f 339/1/6 340/1/6 341/1/6
f 341/1/6 340/1/6 342/1/6
f 343/1/6 344/1/6 345/1/6
f 345/1/6 344/1/6 346/1/6
f 347/1/6 348/1/6 349/1/6
f 349/1/6 348/1/6 350/1/6
f 323/2/6 325/2/6 351/2/6
f 326/2/6 324/2/6 352/2/6
f 323/2/6 351/2/6 353/2/6
f 351/2/6 352/2/6 353/2/6
f 352/2/6 324/2/6 354/2/6
f 353/2/6 352/2/6 354/2/6
