# MagicaVoxel @ Ephtracy

# group
o 

# material
mtllib Bloque cocina.mtl
usemtl palette

# normals
vn -1 0 0
vn 1 0 0
vn 0 0 1
vn 0 0 -1
vn 0 -1 0
vn 0 1 0

# texcoords
vt 0.306641 0.5
vt 0.974609 0.5
vt 0.990234 0.5

# verts
v 1.1 2.4 -1.3
v 1.1 2.4 -2.3
v 1.1 3.8 -1.2
v 1.1 3.8 -1.3
v 1.1 3.8 -2.3
v 1.1 4 -1.2
v 1.1 4 -2.3
v 2.6 2.4 -1.3
v 2.6 2.4 -2.3
v 2.6 3.8 -1.2
v 2.6 3.8 -1.3
v 2.6 3.8 -2.3
v 2.6 4 -1.2
v 2.6 4 -2.3
v 1.1 3.8 -1.2
v 1.1 4 -1.2
v 2.6 3.8 -1.2
v 2.6 4 -1.2
v 1.1 2.4 -1.3
v 1.1 3.8 -1.3
v 2.6 2.4 -1.3
v 2.6 3.8 -1.3
v 1.1 2.4 -2.3
v 1.1 3.8 -2.3
v 1.1 4 -2.3
v 2.6 2.4 -2.3
v 2.6 3.8 -2.3
v 2.6 4 -2.3
v 1.1 2.4 -1.3
v 2.6 2.4 -1.3
v 1.1 2.4 -2.3
v 2.6 2.4 -2.3
v 1.1 3.8 -1.2
v 2.6 3.8 -1.2
v 1.1 3.8 -1.3
v 2.6 3.8 -1.3
v 1.1 4 -1.2
v 2.6 4 -1.2
v 1.1 4 -2.3
v 2.6 4 -2.3

# faces
f 4/3/1 2/3/1 1/3/1
f 5/3/1 2/3/1 4/3/1
f 6/2/1 4/2/1 3/2/1
f 6/2/1 5/2/1 4/2/1
f 7/2/1 5/2/1 6/2/1
f 8/3/2 9/3/2 11/3/2
f 11/3/2 9/3/2 12/3/2
f 10/2/2 11/2/2 13/2/2
f 11/2/2 12/2/2 13/2/2
f 13/2/2 12/2/2 14/2/2
f 17/2/3 16/2/3 15/2/3
f 18/2/3 16/2/3 17/2/3
f 21/3/3 20/3/3 19/3/3
f 22/3/3 20/3/3 21/3/3
f 23/3/4 24/3/4 26/3/4
f 24/2/4 25/2/4 27/2/4
f 26/3/4 24/3/4 27/3/4
f 27/2/4 25/2/4 28/2/4
f 31/3/5 30/3/5 29/3/5
f 32/3/5 30/3/5 31/3/5
f 35/2/5 34/2/5 33/2/5
f 36/2/5 34/2/5 35/2/5
f 37/2/6 38/2/6 39/2/6
f 39/2/6 38/2/6 40/2/6
