# MagicaVoxel @ Ephtracy

# group
o 

# material
mtllib Puerta.mtl
usemtl palette

# normals
vn -1 0 0
vn 1 0 0
vn 0 0 1
vn 0 0 -1
vn 0 -1 0
vn 0 1 0

# texcoords
vt 0.974609 0.5
vt 0.986328 0.5
vt 0.990234 0.5

# verts
v 0.9 2 -1.9
v 0.9 2 -2
v 0.9 6 -1.9
v 0.9 6 -2
v 1.2 2.3 -1.8
v 1.2 2.3 -1.9
v 1.2 2.3 -2
v 1.2 2.3 -2.1
v 1.2 3.7 -1.8
v 1.2 3.7 -1.9
v 1.2 3.7 -2
v 1.2 3.7 -2.1
v 1.2 4.2 -1.8
v 1.2 4.2 -1.9
v 1.2 4.2 -2
v 1.2 4.2 -2.1
v 1.2 5.6 -1.8
v 1.2 5.6 -1.9
v 1.2 5.6 -2
v 1.2 5.6 -2.1
v 2.5 3.8 -1.7
v 2.5 3.8 -1.9
v 2.5 3.8 -2
v 2.5 3.8 -2.2
v 2.5 3.9 -1.7
v 2.5 3.9 -1.9
v 2.5 3.9 -2
v 2.5 3.9 -2.2
v 2.6 2.3 -1.8
v 2.6 2.3 -1.9
v 2.6 2.3 -2
v 2.6 2.3 -2.1
v 2.6 3.7 -1.8
v 2.6 3.7 -1.9
v 2.6 3.7 -2
v 2.6 3.7 -2.1
v 2.6 4.2 -1.8
v 2.6 4.2 -1.9
v 2.6 4.2 -2
v 2.6 4.2 -2.1
v 2.6 5.6 -1.8
v 2.6 5.6 -1.9
v 2.6 5.6 -2
v 2.6 5.6 -2.1
v 2.7 3.8 -1.8
v 2.7 3.8 -1.9
v 2.7 3.8 -2
v 2.7 3.8 -2.1
v 2.7 3.9 -1.8
v 2.7 3.9 -1.9
v 2.7 3.9 -2
v 2.7 3.9 -2.1
v 2.9 2 -1.9
v 2.9 2 -2
v 2.9 3.8 -1.7
v 2.9 3.8 -1.8
v 2.9 3.8 -2.1
v 2.9 3.8 -2.2
v 2.9 3.9 -1.7
v 2.9 3.9 -1.8
v 2.9 3.9 -2.1
v 2.9 3.9 -2.2
v 2.9 6 -1.9
v 2.9 6 -2
v 2.5 3.8 -1.7
v 2.5 3.9 -1.7
v 2.9 3.8 -1.7
v 2.9 3.9 -1.7
v 1.2 2.3 -1.8
v 1.2 3.7 -1.8
v 1.2 4.2 -1.8
v 1.2 5.6 -1.8
v 2.6 2.3 -1.8
v 2.6 3.7 -1.8
v 2.6 4.2 -1.8
v 2.6 5.6 -1.8
v 0.9 2 -1.9
v 0.9 6 -1.9
v 1.2 2.3 -1.9
v 1.2 3.7 -1.9
v 1.2 4.2 -1.9
v 1.2 5.6 -1.9
v 2.5 3.8 -1.9
v 2.5 3.9 -1.9
v 2.6 2.3 -1.9
v 2.6 3.7 -1.9
v 2.6 4.2 -1.9
v 2.6 5.6 -1.9
v 2.7 3.8 -1.9
v 2.7 3.9 -1.9
v 2.9 2 -1.9
v 2.9 6 -1.9
v 2.7 3.8 -2.1
v 2.7 3.9 -2.1
v 2.9 3.8 -2.1
v 2.9 3.9 -2.1
v 2.7 3.8 -1.8
v 2.7 3.9 -1.8
v 2.9 3.8 -1.8
v 2.9 3.9 -1.8
v 0.9 2 -2
v 0.9 6 -2
v 1.2 2.3 -2
v 1.2 3.7 -2
v 1.2 4.2 -2
v 1.2 5.6 -2
v 2.5 3.8 -2
v 2.5 3.9 -2
v 2.6 2.3 -2
v 2.6 3.7 -2
v 2.6 4.2 -2
v 2.6 5.6 -2
v 2.7 3.8 -2
v 2.7 3.9 -2
v 2.9 2 -2
v 2.9 6 -2
v 1.2 2.3 -2.1
v 1.2 3.7 -2.1
v 1.2 4.2 -2.1
v 1.2 5.6 -2.1
v 2.6 2.3 -2.1
v 2.6 3.7 -2.1
v 2.6 4.2 -2.1
v 2.6 5.6 -2.1
v 2.5 3.8 -2.2
v 2.5 3.9 -2.2
v 2.9 3.8 -2.2
v 2.9 3.9 -2.2
v 0.9 2 -1.9
v 2.9 2 -1.9
v 0.9 2 -2
v 2.9 2 -2
v 1.2 2.3 -1.8
v 2.6 2.3 -1.8
v 1.2 2.3 -1.9
v 2.6 2.3 -1.9
v 1.2 2.3 -2
v 2.6 2.3 -2
v 1.2 2.3 -2.1
v 2.6 2.3 -2.1
v 2.5 3.8 -1.7
v 2.9 3.8 -1.7
v 2.7 3.8 -1.8
v 2.9 3.8 -1.8
v 2.5 3.8 -1.9
v 2.7 3.8 -1.9
v 2.5 3.8 -2
v 2.7 3.8 -2
v 2.7 3.8 -2.1
v 2.9 3.8 -2.1
v 2.5 3.8 -2.2
v 2.9 3.8 -2.2
v 1.2 4.2 -1.8
v 2.6 4.2 -1.8
v 1.2 4.2 -1.9
v 2.6 4.2 -1.9
v 1.2 4.2 -2
v 2.6 4.2 -2
v 1.2 4.2 -2.1
v 2.6 4.2 -2.1
v 1.2 3.7 -1.8
v 2.6 3.7 -1.8
v 1.2 3.7 -1.9
v 2.6 3.7 -1.9
v 1.2 3.7 -2
v 2.6 3.7 -2
v 1.2 3.7 -2.1
v 2.6 3.7 -2.1
v 2.5 3.9 -1.7
v 2.9 3.9 -1.7
v 2.7 3.9 -1.8
v 2.9 3.9 -1.8
v 2.5 3.9 -1.9
v 2.7 3.9 -1.9
v 2.5 3.9 -2
v 2.7 3.9 -2
v 2.7 3.9 -2.1
v 2.9 3.9 -2.1
v 2.5 3.9 -2.2
v 2.9 3.9 -2.2
v 1.2 5.6 -1.8
v 2.6 5.6 -1.8
v 1.2 5.6 -1.9
v 2.6 5.6 -1.9
v 1.2 5.6 -2
v 2.6 5.6 -2
v 1.2 5.6 -2.1
v 2.6 5.6 -2.1
v 0.9 6 -1.9
v 2.9 6 -1.9
v 0.9 6 -2
v 2.9 6 -2

# faces
f 3/3/1 2/3/1 1/3/1
f 4/3/1 2/3/1 3/3/1
f 9/2/1 6/2/1 5/2/1
f 10/2/1 6/2/1 9/2/1
f 11/2/1 8/2/1 7/2/1
f 12/2/1 8/2/1 11/2/1
f 17/2/1 14/2/1 13/2/1
f 18/2/1 14/2/1 17/2/1
f 19/2/1 16/2/1 15/2/1
f 20/2/1 16/2/1 19/2/1
f 25/1/1 22/1/1 21/1/1
f 26/1/1 22/1/1 25/1/1
f 27/1/1 24/1/1 23/1/1
f 28/1/1 24/1/1 27/1/1
f 29/2/2 30/2/2 33/2/2
f 33/2/2 30/2/2 34/2/2
f 31/2/2 32/2/2 35/2/2
f 35/2/2 32/2/2 36/2/2
f 37/2/2 38/2/2 41/2/2
f 41/2/2 38/2/2 42/2/2
f 39/2/2 40/2/2 43/2/2
f 43/2/2 40/2/2 44/2/2
f 45/1/2 46/1/2 49/1/2
f 49/1/2 46/1/2 50/1/2
f 47/1/2 48/1/2 51/1/2
f 51/1/2 48/1/2 52/1/2
f 55/1/2 56/1/2 59/1/2
f 59/1/2 56/1/2 60/1/2
f 57/1/2 58/1/2 61/1/2
f 61/1/2 58/1/2 62/1/2
f 53/3/2 54/3/2 63/3/2
f 63/3/2 54/3/2 64/3/2
f 67/1/3 66/1/3 65/1/3
f 68/1/3 66/1/3 67/1/3
f 73/2/3 70/2/3 69/2/3
f 74/2/3 70/2/3 73/2/3
f 75/2/3 72/2/3 71/2/3
f 76/2/3 72/2/3 75/2/3
f 79/3/3 78/3/3 77/3/3
f 80/3/3 78/3/3 79/3/3
f 81/3/3 78/3/3 80/3/3
f 82/3/3 78/3/3 81/3/3
f 83/3/3 81/3/3 80/3/3
f 84/3/3 81/3/3 83/3/3
f 85/3/3 79/3/3 77/3/3
f 86/3/3 83/3/3 80/3/3
f 87/3/3 81/3/3 84/3/3
f 88/3/3 78/3/3 82/3/3
f 89/3/3 86/3/3 85/3/3
f 89/3/3 83/3/3 86/3/3
f 90/3/3 88/3/3 87/3/3
f 90/3/3 87/3/3 84/3/3
f 91/3/3 89/3/3 85/3/3
f 91/3/3 90/3/3 89/3/3
f 91/3/3 85/3/3 77/3/3
f 92/3/3 88/3/3 90/3/3
f 92/3/3 90/3/3 91/3/3
f 92/3/3 78/3/3 88/3/3
f 95/1/3 94/1/3 93/1/3
f 96/1/3 94/1/3 95/1/3
f 97/1/4 98/1/4 99/1/4
f 99/1/4 98/1/4 100/1/4
f 101/3/4 102/3/4 103/3/4
f 103/3/4 102/3/4 104/3/4
f 104/3/4 102/3/4 105/3/4
f 105/3/4 102/3/4 106/3/4
f 104/3/4 105/3/4 107/3/4
f 107/3/4 105/3/4 108/3/4
f 101/3/4 103/3/4 109/3/4
f 104/3/4 107/3/4 110/3/4
f 108/3/4 105/3/4 111/3/4
f 106/3/4 102/3/4 112/3/4
f 109/3/4 110/3/4 113/3/4
f 110/3/4 107/3/4 113/3/4
f 111/3/4 112/3/4 114/3/4
f 108/3/4 111/3/4 114/3/4
f 109/3/4 113/3/4 115/3/4
f 113/3/4 114/3/4 115/3/4
f 101/3/4 109/3/4 115/3/4
f 114/3/4 112/3/4 116/3/4
f 115/3/4 114/3/4 116/3/4
f 112/3/4 102/3/4 116/3/4
f 117/2/4 118/2/4 121/2/4
f 121/2/4 118/2/4 122/2/4
f 119/2/4 120/2/4 123/2/4
f 123/2/4 120/2/4 124/2/4
f 125/1/4 126/1/4 127/1/4
f 127/1/4 126/1/4 128/1/4
f 131/3/5 130/3/5 129/3/5
f 132/3/5 130/3/5 131/3/5
f 135/2/5 134/2/5 133/2/5
f 136/2/5 134/2/5 135/2/5
f 139/2/5 138/2/5 137/2/5
f 140/2/5 138/2/5 139/2/5
f 143/1/5 142/1/5 141/1/5
f 144/1/5 142/1/5 143/1/5
f 145/1/5 143/1/5 141/1/5
f 146/1/5 143/1/5 145/1/5
f 149/1/5 148/1/5 147/1/5
f 151/1/5 149/1/5 147/1/5
f 151/1/5 150/1/5 149/1/5
f 152/1/5 150/1/5 151/1/5
f 155/2/5 154/2/5 153/2/5
f 156/2/5 154/2/5 155/2/5
f 159/2/5 158/2/5 157/2/5
f 160/2/5 158/2/5 159/2/5
f 161/2/6 162/2/6 163/2/6
f 163/2/6 162/2/6 164/2/6
f 165/2/6 166/2/6 167/2/6
f 167/2/6 166/2/6 168/2/6
f 169/1/6 170/1/6 171/1/6
f 171/1/6 170/1/6 172/1/6
f 169/1/6 171/1/6 173/1/6
f 173/1/6 171/1/6 174/1/6
f 175/1/6 176/1/6 177/1/6
f 175/1/6 177/1/6 179/1/6
f 177/1/6 178/1/6 179/1/6
f 179/1/6 178/1/6 180/1/6
f 181/2/6 182/2/6 183/2/6
f 183/2/6 182/2/6 184/2/6
f 185/2/6 186/2/6 187/2/6
f 187/2/6 186/2/6 188/2/6
f 189/3/6 190/3/6 191/3/6
f 191/3/6 190/3/6 192/3/6
