# MagicaVoxel @ Ephtracy

# group
o 

# material
mtllib Armario salon.mtl
usemtl palette

# normals
vn -1 0 0
vn 1 0 0
vn 0 0 1
vn 0 0 -1
vn 0 -1 0
vn 0 1 0

# texcoords
vt 0.365234 0.5
vt 0.970703 0.5
vt 0.986328 0.5
vt 0.990234 0.5

# verts
v 0.9 2.3 -2.7
v 0.9 2.3 -3.3
v 0.9 2.5 -2.7
v 0.9 2.5 -3.3
v 0.9 5.4 -2.7
v 0.9 5.4 -3.3
v 0.9 5.6 -2.7
v 0.9 5.6 -3.3
v 1 2.5 -2.8
v 1 2.5 -3.2
v 1 5.4 -2.8
v 1 5.4 -3.2
v 1.2 2.7 -2.7
v 1.2 2.7 -2.8
v 1.2 3 -2.7
v 1.2 3 -2.8
v 1.2 3.2 -2.7
v 1.2 3.2 -2.8
v 1.2 3.3 -2.7
v 1.2 3.3 -2.8
v 1.2 3.4 -2.7
v 1.2 3.4 -2.8
v 1.2 5.1 -2.7
v 1.2 5.1 -2.8
v 1.8 4.2 -2.6
v 1.8 4.2 -2.7
v 1.8 4.3 -2.6
v 1.8 4.3 -2.7
v 2.1 3.4 -2.7
v 2.1 3.4 -2.8
v 2.1 5.1 -2.7
v 2.1 5.1 -2.8
v 2.2 4.2 -2.6
v 2.2 4.2 -2.7
v 2.2 4.3 -2.6
v 2.2 4.3 -2.7
v 1.9 4.2 -2.6
v 1.9 4.2 -2.7
v 1.9 4.3 -2.6
v 1.9 4.3 -2.7
v 2 3.4 -2.7
v 2 3.4 -2.8
v 2 5.1 -2.7
v 2 5.1 -2.8
v 2.3 4.2 -2.6
v 2.3 4.2 -2.7
v 2.3 4.3 -2.6
v 2.3 4.3 -2.7
v 2.9 2.7 -2.7
v 2.9 2.7 -2.8
v 2.9 3 -2.7
v 2.9 3 -2.8
v 2.9 3.2 -2.7
v 2.9 3.2 -2.8
v 2.9 3.3 -2.7
v 2.9 3.3 -2.8
v 2.9 3.4 -2.7
v 2.9 3.4 -2.8
v 2.9 5.1 -2.7
v 2.9 5.1 -2.8
v 3.1 2.5 -2.8
v 3.1 2.5 -3.2
v 3.1 5.4 -2.8
v 3.1 5.4 -3.2
v 3.2 2.3 -2.7
v 3.2 2.3 -3.3
v 3.2 2.5 -2.7
v 3.2 2.5 -3.3
v 3.2 5.4 -2.7
v 3.2 5.4 -3.3
v 3.2 5.6 -2.7
v 3.2 5.6 -3.3
v 1.8 4.2 -2.6
v 1.8 4.3 -2.6
v 1.9 4.2 -2.6
v 1.9 4.3 -2.6
v 2.2 4.2 -2.6
v 2.2 4.3 -2.6
v 2.3 4.2 -2.6
v 2.3 4.3 -2.6
v 0.9 2.3 -2.7
v 0.9 2.5 -2.7
v 0.9 5.4 -2.7
v 0.9 5.6 -2.7
v 1.2 2.7 -2.7
v 1.2 3 -2.7
v 1.2 3.2 -2.7
v 1.2 3.3 -2.7
v 1.2 3.4 -2.7
v 1.2 5.1 -2.7
v 1.8 4.2 -2.7
v 1.8 4.3 -2.7
v 1.9 4.2 -2.7
v 1.9 4.3 -2.7
v 2 3.4 -2.7
v 2 5.1 -2.7
v 2.1 3.4 -2.7
v 2.1 5.1 -2.7
v 2.2 4.2 -2.7
v 2.2 4.3 -2.7
v 2.3 4.2 -2.7
v 2.3 4.3 -2.7
v 2.9 2.7 -2.7
v 2.9 3 -2.7
v 2.9 3.2 -2.7
v 2.9 3.3 -2.7
v 2.9 3.4 -2.7
v 2.9 5.1 -2.7
v 3.2 2.3 -2.7
v 3.2 2.5 -2.7
v 3.2 5.4 -2.7
v 3.2 5.6 -2.7
v 1 2.5 -2.8
v 1 5.4 -2.8
v 1.2 2.7 -2.8
v 1.2 3 -2.8
v 1.2 3.2 -2.8
v 1.2 3.3 -2.8
v 1.2 3.4 -2.8
v 1.2 5.1 -2.8
v 2 3.4 -2.8
v 2 5.1 -2.8
v 2.1 3.4 -2.8
v 2.1 5.1 -2.8
v 2.9 2.7 -2.8
v 2.9 3 -2.8
v 2.9 3.2 -2.8
v 2.9 3.3 -2.8
v 2.9 3.4 -2.8
v 2.9 5.1 -2.8
v 3.1 2.5 -2.8
v 3.1 5.4 -2.8
v 1 2.5 -3.2
v 1 5.4 -3.2
v 3.1 2.5 -3.2
v 3.1 5.4 -3.2
v 0.9 2.3 -3.3
v 0.9 2.5 -3.3
v 0.9 5.4 -3.3
v 0.9 5.6 -3.3
v 3.2 2.3 -3.3
v 3.2 2.5 -3.3
v 3.2 5.4 -3.3
v 3.2 5.6 -3.3
v 0.9 2.3 -2.7
v 3.2 2.3 -2.7
v 1 2.3 -2.8
v 3.1 2.3 -2.8
v 1 2.3 -3.2
v 3.1 2.3 -3.2
v 0.9 2.3 -3.3
v 3.2 2.3 -3.3
v 1.2 2.7 -2.7
v 2.9 2.7 -2.7
v 1.2 2.7 -2.8
v 2.9 2.7 -2.8
v 1.2 3.2 -2.7
v 2.9 3.2 -2.7
v 1.2 3.2 -2.8
v 2.9 3.2 -2.8
v 1.2 3.4 -2.7
v 2 3.4 -2.7
v 2.1 3.4 -2.7
v 2.9 3.4 -2.7
v 1.2 3.4 -2.8
v 2 3.4 -2.8
v 2.1 3.4 -2.8
v 2.9 3.4 -2.8
v 1.8 4.2 -2.6
v 1.9 4.2 -2.6
v 2.2 4.2 -2.6
v 2.3 4.2 -2.6
v 1.8 4.2 -2.7
v 1.9 4.2 -2.7
v 2.2 4.2 -2.7
v 2.3 4.2 -2.7
v 0.9 5.4 -2.7
v 3.2 5.4 -2.7
v 1 5.4 -2.8
v 3.1 5.4 -2.8
v 1 5.4 -3.2
v 3.1 5.4 -3.2
v 0.9 5.4 -3.3
v 3.2 5.4 -3.3
v 0.9 2.5 -2.7
v 3.2 2.5 -2.7
v 1 2.5 -2.8
v 3.1 2.5 -2.8
v 1 2.5 -3.2
v 3.1 2.5 -3.2
v 0.9 2.5 -3.3
v 3.2 2.5 -3.3
v 1.2 3 -2.7
v 2.9 3 -2.7
v 1.2 3 -2.8
v 2.9 3 -2.8
v 1.2 3.3 -2.7
v 2.9 3.3 -2.7
v 1.2 3.3 -2.8
v 2.9 3.3 -2.8
v 1.8 4.3 -2.6
v 1.9 4.3 -2.6
v 2.2 4.3 -2.6
v 2.3 4.3 -2.6
v 1.8 4.3 -2.7
v 1.9 4.3 -2.7
v 2.2 4.3 -2.7
v 2.3 4.3 -2.7
v 1.2 5.1 -2.7
v 2 5.1 -2.7
v 2.1 5.1 -2.7
v 2.9 5.1 -2.7
v 1.2 5.1 -2.8
v 2 5.1 -2.8
v 2.1 5.1 -2.8
v 2.9 5.1 -2.8
v 0.9 5.6 -2.7
v 3.2 5.6 -2.7
v 0.9 5.6 -3.3
v 3.2 5.6 -3.3

# faces
f 3/3/1 2/3/1 1/3/1
f 4/3/1 2/3/1 3/3/1
f 7/3/1 6/3/1 5/3/1
f 8/3/1 6/3/1 7/3/1
f 11/3/1 10/3/1 9/3/1
f 12/3/1 10/3/1 11/3/1
f 15/2/1 14/2/1 13/2/1
f 16/2/1 14/2/1 15/2/1
f 19/2/1 18/2/1 17/2/1
f 20/2/1 18/2/1 19/2/1
f 23/2/1 22/2/1 21/2/1
f 24/2/1 22/2/1 23/2/1
f 27/3/1 26/3/1 25/3/1
f 28/3/1 26/3/1 27/3/1
f 31/2/1 30/2/1 29/2/1
f 32/2/1 30/2/1 31/2/1
f 35/3/1 34/3/1 33/3/1
f 36/3/1 34/3/1 35/3/1
f 37/3/2 38/3/2 39/3/2
f 39/3/2 38/3/2 40/3/2
f 41/2/2 42/2/2 43/2/2
f 43/2/2 42/2/2 44/2/2
f 45/3/2 46/3/2 47/3/2
f 47/3/2 46/3/2 48/3/2
f 49/2/2 50/2/2 51/2/2
f 51/2/2 50/2/2 52/2/2
f 53/2/2 54/2/2 55/2/2
f 55/2/2 54/2/2 56/2/2
f 57/2/2 58/2/2 59/2/2
f 59/2/2 58/2/2 60/2/2
f 61/3/2 62/3/2 63/3/2
f 63/3/2 62/3/2 64/3/2
f 65/3/2 66/3/2 67/3/2
f 67/3/2 66/3/2 68/3/2
f 69/3/2 70/3/2 71/3/2
f 71/3/2 70/3/2 72/3/2
f 75/3/3 74/3/3 73/3/3
f 76/3/3 74/3/3 75/3/3
f 79/3/3 78/3/3 77/3/3
f 80/3/3 78/3/3 79/3/3
f 91/2/3 90/2/3 89/2/3
f 92/2/3 90/2/3 91/2/3
f 93/2/3 91/2/3 89/2/3
f 94/2/3 90/2/3 92/2/3
f 95/2/3 93/2/3 89/2/3
f 95/2/3 94/2/3 93/2/3
f 96/2/3 90/2/3 94/2/3
f 96/2/3 94/2/3 95/2/3
f 99/2/3 98/2/3 97/2/3
f 100/2/3 98/2/3 99/2/3
f 101/2/3 99/2/3 97/2/3
f 102/2/3 98/2/3 100/2/3
f 103/2/3 86/2/3 85/2/3
f 104/2/3 86/2/3 103/2/3
f 105/2/3 88/2/3 87/2/3
f 106/2/3 88/2/3 105/2/3
f 107/2/3 102/2/3 101/2/3
f 107/2/3 101/2/3 97/2/3
f 108/2/3 98/2/3 102/2/3
f 108/2/3 102/2/3 107/2/3
f 109/3/3 82/3/3 81/3/3
f 110/3/3 82/3/3 109/3/3
f 111/3/3 84/3/3 83/3/3
f 112/3/3 84/3/3 111/3/3
f 115/3/3 114/3/3 113/3/3
f 116/3/3 114/3/3 115/3/3
f 117/3/3 114/3/3 116/3/3
f 118/3/3 114/3/3 117/3/3
f 119/3/3 114/3/3 118/3/3
f 120/3/3 114/3/3 119/3/3
f 121/3/3 119/3/3 118/3/3
f 122/3/3 114/3/3 120/3/3
f 123/3/3 121/3/3 118/3/3
f 123/3/3 122/3/3 121/3/3
f 124/3/3 114/3/3 122/3/3
f 124/3/3 122/3/3 123/3/3
f 125/3/3 115/3/3 113/3/3
f 126/3/3 117/3/3 116/3/3
f 127/3/3 117/3/3 126/3/3
f 128/3/3 123/3/3 118/3/3
f 129/3/3 123/3/3 128/3/3
f 130/3/3 114/3/3 124/3/3
f 131/3/3 129/3/3 128/3/3
f 131/3/3 130/3/3 129/3/3
f 131/3/3 127/3/3 126/3/3
f 131/3/3 125/3/3 113/3/3
f 131/3/3 128/3/3 127/3/3
f 131/3/3 126/3/3 125/3/3
f 132/3/3 114/3/3 130/3/3
f 132/3/3 130/3/3 131/3/3
f 133/3/4 134/3/4 135/3/4
f 135/3/4 134/3/4 136/3/4
f 137/3/4 138/3/4 141/3/4
f 141/3/4 138/3/4 142/3/4
f 139/3/4 140/3/4 143/3/4
f 143/3/4 140/3/4 144/3/4
f 147/3/5 146/3/5 145/3/5
f 148/3/5 146/3/5 147/3/5
f 149/3/5 147/3/5 145/3/5
f 149/4/5 148/4/5 147/4/5
f 150/3/5 146/3/5 148/3/5
f 150/4/5 148/4/5 149/4/5
f 151/3/5 149/3/5 145/3/5
f 151/3/5 150/3/5 149/3/5
f 152/3/5 146/3/5 150/3/5
f 152/3/5 150/3/5 151/3/5
f 155/2/5 154/2/5 153/2/5
f 156/2/5 154/2/5 155/2/5
f 159/2/5 158/2/5 157/2/5
f 160/2/5 158/2/5 159/2/5
f 165/2/5 162/2/5 161/2/5
f 166/2/5 162/2/5 165/2/5
f 167/2/5 164/2/5 163/2/5
f 168/2/5 164/2/5 167/2/5
f 173/3/5 170/3/5 169/3/5
f 174/3/5 170/3/5 173/3/5
f 175/3/5 172/3/5 171/3/5
f 176/3/5 172/3/5 175/3/5
f 179/3/5 178/3/5 177/3/5
f 180/3/5 178/3/5 179/3/5
f 181/3/5 179/3/5 177/3/5
f 182/3/5 178/3/5 180/3/5
f 183/3/5 181/3/5 177/3/5
f 183/3/5 182/3/5 181/3/5
f 184/3/5 178/3/5 182/3/5
f 184/3/5 182/3/5 183/3/5
f 185/3/6 186/3/6 187/3/6
f 187/3/6 186/3/6 188/3/6
f 185/3/6 187/3/6 189/3/6
f 188/3/6 186/3/6 190/3/6
f 185/3/6 189/3/6 191/3/6
f 189/3/6 190/3/6 191/3/6
f 190/3/6 186/3/6 192/3/6
f 191/3/6 190/3/6 192/3/6
f 193/2/6 194/2/6 195/2/6
f 195/2/6 194/2/6 196/2/6
f 197/2/6 198/2/6 199/2/6
f 199/2/6 198/2/6 200/2/6
f 201/3/6 202/3/6 205/3/6
f 205/3/6 202/3/6 206/3/6
f 203/3/6 204/3/6 207/3/6
f 207/3/6 204/3/6 208/3/6
f 209/2/6 210/2/6 213/2/6
f 213/2/6 210/2/6 214/2/6
f 211/2/6 212/2/6 215/2/6
f 215/2/6 212/2/6 216/2/6
f 217/3/6 218/3/6 219/3/6
f 219/3/6 218/3/6 220/3/6
