# MagicaVoxel @ Ephtracy

# group
o 

# material
mtllib lavabo.mtl
usemtl palette

# normals
vn -1 0 0
vn 1 0 0
vn 0 0 1
vn 0 0 -1
vn 0 -1 0
vn 0 1 0

# texcoords
vt 0.974609 0.5
vt 0.978516 0.5
vt 0.994141 0.5

# verts
v 0.3 3 -2.6
v 0.3 3 -4
v 0.3 3.4 -2.6
v 0.3 3.4 -4
v 0.7 3.4 -3.8
v 0.7 3.4 -3.9
v 0.7 3.4 -4
v 0.7 3.5 -3.8
v 0.7 3.5 -4
v 1.1 3.4 -3.9
v 1.1 3.4 -4
v 1.1 3.6 -3.3
v 1.1 3.6 -3.4
v 1.1 3.7 -3.3
v 1.1 3.7 -3.4
v 1.1 3.7 -3.9
v 1.1 3.8 -3.3
v 1.1 3.8 -4
v 1.5 3.4 -3.8
v 1.5 3.4 -3.9
v 1.5 3.4 -4
v 1.5 3.5 -3.8
v 1.5 3.5 -4
v 1.9 3.2 -2.8
v 1.9 3.2 -3.9
v 1.9 3.4 -2.8
v 1.9 3.4 -3.9
v 0.5 3.2 -2.8
v 0.5 3.2 -3.9
v 0.5 3.4 -2.8
v 0.5 3.4 -3.9
v 0.9 3.4 -3.8
v 0.9 3.4 -3.9
v 0.9 3.4 -4
v 0.9 3.5 -3.8
v 0.9 3.5 -4
v 1.3 3.4 -3.9
v 1.3 3.4 -4
v 1.3 3.6 -3.3
v 1.3 3.6 -3.4
v 1.3 3.7 -3.3
v 1.3 3.7 -3.4
v 1.3 3.7 -3.9
v 1.3 3.8 -3.3
v 1.3 3.8 -4
v 1.7 3.4 -3.8
v 1.7 3.4 -3.9
v 1.7 3.4 -4
v 1.7 3.5 -3.8
v 1.7 3.5 -4
v 2.1 3 -2.6
v 2.1 3 -4
v 2.1 3.4 -2.6
v 2.1 3.4 -4
v 0.3 3 -2.6
v 0.3 3.4 -2.6
v 2.1 3 -2.6
v 2.1 3.4 -2.6
v 1.1 3.6 -3.3
v 1.1 3.7 -3.3
v 1.1 3.8 -3.3
v 1.3 3.6 -3.3
v 1.3 3.7 -3.3
v 1.3 3.8 -3.3
v 0.7 3.4 -3.8
v 0.7 3.5 -3.8
v 0.9 3.4 -3.8
v 0.9 3.5 -3.8
v 1.5 3.4 -3.8
v 1.5 3.5 -3.8
v 1.7 3.4 -3.8
v 1.7 3.5 -3.8
v 0.5 3.2 -3.9
v 0.5 3.4 -3.9
v 0.7 3.4 -3.9
v 0.9 3.4 -3.9
v 1.1 3.4 -3.9
v 1.1 3.7 -3.9
v 1.3 3.4 -3.9
v 1.3 3.7 -3.9
v 1.5 3.4 -3.9
v 1.7 3.4 -3.9
v 1.9 3.2 -3.9
v 1.9 3.4 -3.9
v 0.5 3.2 -2.8
v 0.5 3.4 -2.8
v 1.9 3.2 -2.8
v 1.9 3.4 -2.8
v 1.1 3.6 -3.4
v 1.1 3.7 -3.4
v 1.3 3.6 -3.4
v 1.3 3.7 -3.4
v 0.3 3 -4
v 0.3 3.4 -4
v 0.7 3.4 -4
v 0.7 3.5 -4
v 0.9 3.4 -4
v 0.9 3.5 -4
v 1.1 3.4 -4
v 1.1 3.8 -4
v 1.3 3.4 -4
v 1.3 3.8 -4
v 1.5 3.4 -4
v 1.5 3.5 -4
v 1.7 3.4 -4
v 1.7 3.5 -4
v 2.1 3 -4
v 2.1 3.4 -4
v 0.3 3 -2.6
v 2.1 3 -2.6
v 0.3 3 -4
v 2.1 3 -4
v 0.7 3.4 -3.8
v 0.9 3.4 -3.8
v 1.5 3.4 -3.8
v 1.7 3.4 -3.8
v 0.7 3.4 -3.9
v 0.9 3.4 -3.9
v 1.5 3.4 -3.9
v 1.7 3.4 -3.9
v 1.1 3.6 -3.3
v 1.3 3.6 -3.3
v 1.1 3.6 -3.4
v 1.3 3.6 -3.4
v 1.1 3.7 -3.4
v 1.3 3.7 -3.4
v 1.1 3.7 -3.9
v 1.3 3.7 -3.9
v 0.5 3.2 -2.8
v 1.9 3.2 -2.8
v 0.5 3.2 -3.9
v 1.9 3.2 -3.9
v 0.3 3.4 -2.6
v 2.1 3.4 -2.6
v 0.5 3.4 -2.8
v 1.9 3.4 -2.8
v 0.5 3.4 -3.9
v 0.7 3.4 -3.9
v 0.9 3.4 -3.9
v 1.1 3.4 -3.9
v 1.3 3.4 -3.9
v 1.5 3.4 -3.9
v 1.7 3.4 -3.9
v 1.9 3.4 -3.9
v 0.3 3.4 -4
v 0.7 3.4 -4
v 0.9 3.4 -4
v 1.1 3.4 -4
v 1.3 3.4 -4
v 1.5 3.4 -4
v 1.7 3.4 -4
v 2.1 3.4 -4
v 0.7 3.5 -3.8
v 0.9 3.5 -3.8
v 1.5 3.5 -3.8
v 1.7 3.5 -3.8
v 0.7 3.5 -4
v 0.9 3.5 -4
v 1.5 3.5 -4
v 1.7 3.5 -4
v 1.1 3.8 -3.3
v 1.3 3.8 -3.3
v 1.1 3.8 -4
v 1.3 3.8 -4

# faces
f 3/2/1 2/2/1 1/2/1
f 4/2/1 2/2/1 3/2/1
f 8/1/1 6/1/1 5/1/1
f 8/1/1 7/1/1 6/1/1
f 9/1/1 7/1/1 8/1/1
f 14/3/1 13/3/1 12/3/1
f 15/3/1 13/3/1 14/3/1
f 16/1/1 11/1/1 10/1/1
f 17/1/1 15/1/1 14/1/1
f 17/1/1 16/1/1 15/1/1
f 18/1/1 11/1/1 16/1/1
f 18/1/1 16/1/1 17/1/1
f 22/1/1 20/1/1 19/1/1
f 22/1/1 21/1/1 20/1/1
f 23/1/1 21/1/1 22/1/1
f 26/2/1 25/2/1 24/2/1
f 27/2/1 25/2/1 26/2/1
f 28/2/2 29/2/2 30/2/2
f 30/2/2 29/2/2 31/2/2
f 32/1/2 33/1/2 35/1/2
f 33/1/2 34/1/2 35/1/2
f 35/1/2 34/1/2 36/1/2
f 39/3/2 40/3/2 41/3/2
f 41/3/2 40/3/2 42/3/2
f 37/1/2 38/1/2 43/1/2
f 41/1/2 42/1/2 44/1/2
f 42/1/2 43/1/2 44/1/2
f 43/1/2 38/1/2 45/1/2
f 44/1/2 43/1/2 45/1/2
f 46/1/2 47/1/2 49/1/2
f 47/1/2 48/1/2 49/1/2
f 49/1/2 48/1/2 50/1/2
f 51/2/2 52/2/2 53/2/2
f 53/2/2 52/2/2 54/2/2
f 57/2/3 56/2/3 55/2/3
f 58/2/3 56/2/3 57/2/3
f 62/3/3 60/3/3 59/3/3
f 63/1/3 61/1/3 60/1/3
f 63/3/3 60/3/3 62/3/3
f 64/1/3 61/1/3 63/1/3
f 67/1/3 66/1/3 65/1/3
f 68/1/3 66/1/3 67/1/3
f 71/1/3 70/1/3 69/1/3
f 72/1/3 70/1/3 71/1/3
f 75/2/3 74/2/3 73/2/3
f 76/2/3 75/2/3 73/2/3
f 77/2/3 76/2/3 73/2/3
f 79/2/3 77/2/3 73/2/3
f 79/1/3 78/1/3 77/1/3
f 80/1/3 78/1/3 79/1/3
f 81/2/3 79/2/3 73/2/3
f 82/2/3 81/2/3 73/2/3
f 83/2/3 82/2/3 73/2/3
f 84/2/3 82/2/3 83/2/3
f 85/2/4 86/2/4 87/2/4
f 87/2/4 86/2/4 88/2/4
f 89/3/4 90/3/4 91/3/4
f 91/3/4 90/3/4 92/3/4
f 93/2/4 94/2/4 95/2/4
f 93/2/4 95/2/4 97/2/4
f 95/1/4 96/1/4 97/1/4
f 97/1/4 96/1/4 98/1/4
f 93/2/4 97/2/4 99/2/4
f 93/2/4 99/2/4 101/2/4
f 99/1/4 100/1/4 101/1/4
f 101/1/4 100/1/4 102/1/4
f 93/2/4 101/2/4 103/2/4
f 93/2/4 103/2/4 105/2/4
f 103/1/4 104/1/4 105/1/4
f 105/1/4 104/1/4 106/1/4
f 93/2/4 105/2/4 107/2/4
f 107/2/4 105/2/4 108/2/4
f 111/2/5 110/2/5 109/2/5
f 112/2/5 110/2/5 111/2/5
f 117/1/5 114/1/5 113/1/5
f 118/1/5 114/1/5 117/1/5
f 119/1/5 116/1/5 115/1/5
f 120/1/5 116/1/5 119/1/5
f 123/3/5 122/3/5 121/3/5
f 124/3/5 122/3/5 123/3/5
f 127/1/5 126/1/5 125/1/5
f 128/1/5 126/1/5 127/1/5
f 129/2/6 130/2/6 131/2/6
f 131/2/6 130/2/6 132/2/6
f 133/2/6 134/2/6 135/2/6
f 135/2/6 134/2/6 136/2/6
f 133/2/6 135/2/6 137/2/6
f 136/2/6 134/2/6 144/2/6
f 133/2/6 137/2/6 145/2/6
f 137/2/6 138/2/6 145/2/6
f 145/2/6 138/2/6 146/2/6
f 139/2/6 140/2/6 147/2/6
f 147/2/6 140/2/6 148/2/6
f 141/2/6 142/2/6 149/2/6
f 149/2/6 142/2/6 150/2/6
f 143/2/6 144/2/6 151/2/6
f 144/2/6 134/2/6 152/2/6
f 151/2/6 144/2/6 152/2/6
f 153/1/6 154/1/6 157/1/6
f 157/1/6 154/1/6 158/1/6
f 155/1/6 156/1/6 159/1/6
f 159/1/6 156/1/6 160/1/6
f 161/1/6 162/1/6 163/1/6
f 163/1/6 162/1/6 164/1/6
