# MagicaVoxel @ Ephtracy

# group
o 

# material
mtllib Escritorio.mtl
usemtl palette

# normals
vn -1 0 0
vn 1 0 0
vn 0 0 1
vn 0 0 -1
vn 0 -1 0
vn 0 1 0

# texcoords
vt 0.970703 0.5
vt 0.986328 0.5

# verts
v 1.1 2.4 -1.6
v 1.1 2.4 -2.5
v 1.1 3.5 -1.6
v 1.1 3.5 -2.5
v 2.9 2.4 -1.6
v 2.9 2.4 -2.5
v 2.9 3.1 -1.8
v 2.9 3.1 -2.5
v 2.9 3.2 -1.8
v 2.9 3.2 -2.4
v 2.9 3.4 -1.6
v 2.9 3.4 -2.4
v 1.2 2.4 -1.6
v 1.2 2.4 -2.5
v 1.2 3.1 -1.8
v 1.2 3.1 -2.5
v 1.2 3.2 -1.8
v 1.2 3.2 -2.4
v 1.2 3.4 -1.6
v 1.2 3.4 -2.4
v 3 2.4 -1.6
v 3 2.4 -2.5
v 3 3.5 -1.6
v 3 3.5 -2.5
v 1.1 2.4 -1.6
v 1.1 3.5 -1.6
v 1.2 2.4 -1.6
v 1.2 3.4 -1.6
v 2.9 2.4 -1.6
v 2.9 3.4 -1.6
v 3 2.4 -1.6
v 3 3.5 -1.6
v 1.2 3.1 -1.8
v 1.2 3.2 -1.8
v 2.9 3.1 -1.8
v 2.9 3.2 -1.8
v 1.2 3.2 -2.4
v 1.2 3.4 -2.4
v 2.9 3.2 -2.4
v 2.9 3.4 -2.4
v 1.1 2.4 -2.5
v 1.1 3.5 -2.5
v 1.2 2.4 -2.5
v 1.2 3.1 -2.5
v 1.2 3.2 -2.5
v 2.9 2.4 -2.5
v 2.9 3.1 -2.5
v 2.9 3.2 -2.5
v 3 2.4 -2.5
v 3 3.5 -2.5
v 1.1 2.4 -1.6
v 1.2 2.4 -1.6
v 2.9 2.4 -1.6
v 3 2.4 -1.6
v 1.1 2.4 -2.5
v 1.2 2.4 -2.5
v 2.9 2.4 -2.5
v 3 2.4 -2.5
v 1.2 3.1 -1.8
v 2.9 3.1 -1.8
v 1.2 3.1 -2.5
v 2.9 3.1 -2.5
v 1.2 3.4 -1.6
v 2.9 3.4 -1.6
v 1.2 3.4 -2.4
v 2.9 3.4 -2.4
v 1.2 3.2 -1.8
v 2.9 3.2 -1.8
v 1.2 3.2 -2.4
v 2.9 3.2 -2.4
v 1.1 3.5 -1.6
v 3 3.5 -1.6
v 1.1 3.5 -2.5
v 3 3.5 -2.5

# faces
f 3/2/1 2/2/1 1/2/1
f 4/2/1 2/2/1 3/2/1
f 7/2/1 6/2/1 5/2/1
f 8/2/1 6/2/1 7/2/1
f 9/2/1 7/2/1 5/2/1
f 11/2/1 9/2/1 5/2/1
f 11/2/1 10/2/1 9/2/1
f 12/2/1 10/2/1 11/2/1
f 13/2/2 14/2/2 15/2/2
f 15/2/2 14/2/2 16/2/2
f 13/2/2 15/2/2 17/2/2
f 13/2/2 17/2/2 19/2/2
f 17/2/2 18/2/2 19/2/2
f 19/2/2 18/2/2 20/2/2
f 21/2/2 22/2/2 23/2/2
f 23/2/2 22/2/2 24/2/2
f 27/2/3 26/2/3 25/2/3
f 28/2/3 26/2/3 27/2/3
f 30/2/3 26/2/3 28/2/3
f 31/2/3 30/2/3 29/2/3
f 32/2/3 26/2/3 30/2/3
f 32/2/3 30/2/3 31/2/3
f 35/1/3 34/1/3 33/1/3
f 36/1/3 34/1/3 35/1/3
f 39/2/3 38/2/3 37/2/3
f 40/2/3 38/2/3 39/2/3
f 41/2/4 42/2/4 43/2/4
f 43/2/4 42/2/4 44/2/4
f 44/2/4 42/2/4 45/2/4
f 44/1/4 45/1/4 47/1/4
f 45/2/4 42/2/4 48/2/4
f 47/1/4 45/1/4 48/1/4
f 46/2/4 47/2/4 49/2/4
f 47/2/4 48/2/4 49/2/4
f 48/2/4 42/2/4 50/2/4
f 49/2/4 48/2/4 50/2/4
f 55/2/5 52/2/5 51/2/5
f 56/2/5 52/2/5 55/2/5
f 57/2/5 54/2/5 53/2/5
f 58/2/5 54/2/5 57/2/5
f 61/1/5 60/1/5 59/1/5
f 62/1/5 60/1/5 61/1/5
f 65/2/5 64/2/5 63/2/5
f 66/2/5 64/2/5 65/2/5
f 67/1/6 68/1/6 69/1/6
f 69/1/6 68/1/6 70/1/6
f 71/2/6 72/2/6 73/2/6
f 73/2/6 72/2/6 74/2/6
