# MagicaVoxel @ Ephtracy

# group
o 

# material
mtllib Horno con hornilla.mtl
usemtl palette

# normals
vn -1 0 0
vn 1 0 0
vn 0 0 1
vn 0 0 -1
vn 0 -1 0
vn 0 1 0

# texcoords
vt 0.306641 0.5
vt 0.970703 0.5
vt 0.974609 0.5
vt 0.982422 0.5
vt 0.990234 0.5

# verts
v 1.1 2.4 -1.3
v 1.1 2.4 -2.3
v 1.1 3.8 -1.2
v 1.1 3.8 -1.3
v 1.1 3.8 -2.3
v 1.1 4 -1.2
v 1.1 4 -2.1
v 1.1 4.1 -2.1
v 1.1 4.1 -2.2
v 1.1 4.2 -2.2
v 1.1 4.2 -2.3
v 1.2 3.4 -1.1
v 1.2 3.4 -1.3
v 1.2 3.5 -1.1
v 1.2 3.5 -1.3
v 1.2 3.6 -1.2
v 1.2 3.6 -1.3
v 1.2 3.7 -1.2
v 1.2 3.7 -1.3
v 1.3 4 -1.5
v 1.3 4 -1.8
v 1.3 4.1 -1.5
v 1.3 4.1 -1.8
v 1.4 3.6 -1.2
v 1.4 3.6 -1.3
v 1.4 3.7 -1.2
v 1.4 3.7 -1.3
v 1.4 4 -1.4
v 1.4 4 -1.5
v 1.4 4 -1.8
v 1.4 4 -1.9
v 1.4 4.1 -1.4
v 1.4 4.1 -1.5
v 1.4 4.1 -1.8
v 1.4 4.1 -1.9
v 1.6 4 -1.6
v 1.6 4 -1.7
v 1.6 4.1 -1.6
v 1.6 4.1 -1.7
v 1.9 4 -1.5
v 1.9 4 -1.8
v 1.9 4.1 -1.5
v 1.9 4.1 -1.8
v 2 4 -1.4
v 2 4 -1.5
v 2 4 -1.8
v 2 4 -1.9
v 2 4.1 -1.4
v 2 4.1 -1.5
v 2 4.1 -1.8
v 2 4.1 -1.9
v 2.2 3.6 -1.2
v 2.2 3.6 -1.3
v 2.2 3.7 -1.2
v 2.2 3.7 -1.3
v 2.2 4 -1.6
v 2.2 4 -1.7
v 2.2 4.1 -1.6
v 2.2 4.1 -1.7
v 2.4 3.4 -1.2
v 2.4 3.4 -1.4
v 2.4 3.5 -1.2
v 2.4 3.5 -1.3
v 2.4 3.5 -1.4
v 2.4 3.6 -1.2
v 2.4 3.6 -1.3
v 2.4 3.7 -1.2
v 2.4 3.7 -1.3
v 2.5 2.6 -1.3
v 2.5 2.6 -1.4
v 2.5 3 -1.4
v 2.5 3.1 -1.4
v 2.5 3.4 -1.3
v 2.5 3.4 -1.4
v 1.2 2.6 -1.3
v 1.2 2.6 -1.4
v 1.2 3 -1.4
v 1.2 3.1 -1.4
v 1.2 3.4 -1.3
v 1.2 3.4 -1.4
v 1.3 3.4 -1.2
v 1.3 3.4 -1.4
v 1.3 3.5 -1.2
v 1.3 3.5 -1.3
v 1.3 3.5 -1.4
v 1.3 3.6 -1.2
v 1.3 3.6 -1.3
v 1.3 3.7 -1.2
v 1.3 3.7 -1.3
v 1.5 3.6 -1.2
v 1.5 3.6 -1.3
v 1.5 3.7 -1.2
v 1.5 3.7 -1.3
v 1.5 4 -1.6
v 1.5 4 -1.7
v 1.5 4.1 -1.6
v 1.5 4.1 -1.7
v 1.7 4 -1.4
v 1.7 4 -1.5
v 1.7 4 -1.8
v 1.7 4 -1.9
v 1.7 4.1 -1.4
v 1.7 4.1 -1.5
v 1.7 4.1 -1.8
v 1.7 4.1 -1.9
v 1.8 4 -1.5
v 1.8 4 -1.8
v 1.8 4.1 -1.5
v 1.8 4.1 -1.8
v 2.1 4 -1.6
v 2.1 4 -1.7
v 2.1 4.1 -1.6
v 2.1 4.1 -1.7
v 2.3 3.6 -1.2
v 2.3 3.6 -1.3
v 2.3 3.7 -1.2
v 2.3 3.7 -1.3
v 2.3 4 -1.4
v 2.3 4 -1.5
v 2.3 4 -1.8
v 2.3 4 -1.9
v 2.3 4.1 -1.4
v 2.3 4.1 -1.5
v 2.3 4.1 -1.8
v 2.3 4.1 -1.9
v 2.4 4 -1.5
v 2.4 4 -1.8
v 2.4 4.1 -1.5
v 2.4 4.1 -1.8
v 2.5 3.4 -1.1
v 2.5 3.4 -1.3
v 2.5 3.5 -1.1
v 2.5 3.5 -1.3
v 2.5 3.6 -1.2
v 2.5 3.6 -1.3
v 2.5 3.7 -1.2
v 2.5 3.7 -1.3
v 2.6 2.4 -1.3
v 2.6 2.4 -2.3
v 2.6 3.8 -1.2
v 2.6 3.8 -1.3
v 2.6 3.8 -2.3
v 2.6 4 -1.2
v 2.6 4 -2.1
v 2.6 4.1 -2.1
v 2.6 4.1 -2.2
v 2.6 4.2 -2.2
v 2.6 4.2 -2.3
v 1.2 3.4 -1.1
v 1.2 3.5 -1.1
v 2.5 3.4 -1.1
v 2.5 3.5 -1.1
v 1.1 3.8 -1.2
v 1.1 4 -1.2
v 1.2 3.6 -1.2
v 1.2 3.7 -1.2
v 1.3 3.6 -1.2
v 1.3 3.7 -1.2
v 1.4 3.6 -1.2
v 1.4 3.7 -1.2
v 1.5 3.6 -1.2
v 1.5 3.7 -1.2
v 2.2 3.6 -1.2
v 2.2 3.7 -1.2
v 2.3 3.6 -1.2
v 2.3 3.7 -1.2
v 2.4 3.6 -1.2
v 2.4 3.7 -1.2
v 2.5 3.6 -1.2
v 2.5 3.7 -1.2
v 2.6 3.8 -1.2
v 2.6 4 -1.2
v 1.1 2.4 -1.3
v 1.1 3.8 -1.3
v 1.2 2.6 -1.3
v 1.2 3.4 -1.3
v 1.2 3.5 -1.3
v 1.2 3.6 -1.3
v 1.2 3.7 -1.3
v 1.3 3.5 -1.3
v 1.3 3.6 -1.3
v 1.3 3.7 -1.3
v 1.4 3.6 -1.3
v 1.4 3.7 -1.3
v 1.5 3.6 -1.3
v 1.5 3.7 -1.3
v 2.2 3.6 -1.3
v 2.2 3.7 -1.3
v 2.3 3.6 -1.3
v 2.3 3.7 -1.3
v 2.4 3.5 -1.3
v 2.4 3.6 -1.3
v 2.4 3.7 -1.3
v 2.5 2.6 -1.3
v 2.5 3.4 -1.3
v 2.5 3.5 -1.3
v 2.5 3.6 -1.3
v 2.5 3.7 -1.3
v 2.6 2.4 -1.3
v 2.6 3.8 -1.3
v 1.2 2.6 -1.4
v 1.2 3 -1.4
v 1.2 3.1 -1.4
v 1.2 3.4 -1.4
v 1.3 3.4 -1.4
v 1.3 3.5 -1.4
v 1.4 4 -1.4
v 1.4 4.1 -1.4
v 1.7 4 -1.4
v 1.7 4.1 -1.4
v 2 4 -1.4
v 2 4.1 -1.4
v 2.3 4 -1.4
v 2.3 4.1 -1.4
v 2.4 3.4 -1.4
v 2.4 3.5 -1.4
v 2.5 2.6 -1.4
v 2.5 3 -1.4
v 2.5 3.1 -1.4
v 2.5 3.4 -1.4
v 1.3 4 -1.5
v 1.3 4.1 -1.5
v 1.4 4 -1.5
v 1.4 4.1 -1.5
v 1.7 4 -1.5
v 1.7 4.1 -1.5
v 1.8 4 -1.5
v 1.8 4.1 -1.5
v 1.9 4 -1.5
v 1.9 4.1 -1.5
v 2 4 -1.5
v 2 4.1 -1.5
v 2.3 4 -1.5
v 2.3 4.1 -1.5
v 2.4 4 -1.5
v 2.4 4.1 -1.5
v 1.5 4 -1.7
v 1.5 4.1 -1.7
v 1.6 4 -1.7
v 1.6 4.1 -1.7
v 2.1 4 -1.7
v 2.1 4.1 -1.7
v 2.2 4 -1.7
v 2.2 4.1 -1.7
v 1.1 4 -2.1
v 1.1 4.1 -2.1
v 2.6 4 -2.1
v 2.6 4.1 -2.1
v 1.1 4.1 -2.2
v 1.1 4.2 -2.2
v 2.6 4.1 -2.2
v 2.6 4.2 -2.2
v 1.3 3.4 -1.2
v 1.3 3.5 -1.2
v 2.4 3.4 -1.2
v 2.4 3.5 -1.2
v 1.5 4 -1.6
v 1.5 4.1 -1.6
v 1.6 4 -1.6
v 1.6 4.1 -1.6
v 2.1 4 -1.6
v 2.1 4.1 -1.6
v 2.2 4 -1.6
v 2.2 4.1 -1.6
v 1.3 4 -1.8
v 1.3 4.1 -1.8
v 1.4 4 -1.8
v 1.4 4.1 -1.8
v 1.7 4 -1.8
v 1.7 4.1 -1.8
v 1.8 4 -1.8
v 1.8 4.1 -1.8
v 1.9 4 -1.8
v 1.9 4.1 -1.8
v 2 4 -1.8
v 2 4.1 -1.8
v 2.3 4 -1.8
v 2.3 4.1 -1.8
v 2.4 4 -1.8
v 2.4 4.1 -1.8
v 1.4 4 -1.9
v 1.4 4.1 -1.9
v 1.7 4 -1.9
v 1.7 4.1 -1.9
v 2 4 -1.9
v 2 4.1 -1.9
v 2.3 4 -1.9
v 2.3 4.1 -1.9
v 1.1 2.4 -2.3
v 1.1 3.8 -2.3
v 1.1 4.2 -2.3
v 2.6 2.4 -2.3
v 2.6 3.8 -2.3
v 2.6 4.2 -2.3
v 1.1 2.4 -1.3
v 2.6 2.4 -1.3
v 1.1 2.4 -2.3
v 2.6 2.4 -2.3
v 1.2 3.4 -1.1
v 2.5 3.4 -1.1
v 1.3 3.4 -1.2
v 2.4 3.4 -1.2
v 1.2 3.4 -1.3
v 2.5 3.4 -1.3
v 1.2 3.4 -1.4
v 1.3 3.4 -1.4
v 2.4 3.4 -1.4
v 2.5 3.4 -1.4
v 1.3 3.5 -1.3
v 2.4 3.5 -1.3
v 1.3 3.5 -1.4
v 2.4 3.5 -1.4
v 1.2 3.6 -1.2
v 1.3 3.6 -1.2
v 1.4 3.6 -1.2
v 1.5 3.6 -1.2
v 2.2 3.6 -1.2
v 2.3 3.6 -1.2
v 2.4 3.6 -1.2
v 2.5 3.6 -1.2
v 1.2 3.6 -1.3
v 1.3 3.6 -1.3
v 1.4 3.6 -1.3
v 1.5 3.6 -1.3
v 2.2 3.6 -1.3
v 2.3 3.6 -1.3
v 2.4 3.6 -1.3
v 2.5 3.6 -1.3
v 1.1 3.8 -1.2
v 2.6 3.8 -1.2
v 1.1 3.8 -1.3
v 2.6 3.8 -1.3
v 1.2 2.6 -1.3
v 2.5 2.6 -1.3
v 1.2 2.6 -1.4
v 2.5 2.6 -1.4
v 1.2 3.5 -1.1
v 2.5 3.5 -1.1
v 1.3 3.5 -1.2
v 2.4 3.5 -1.2
v 1.2 3.5 -1.3
v 1.3 3.5 -1.3
v 2.4 3.5 -1.3
v 2.5 3.5 -1.3
v 1.2 3.7 -1.2
v 1.3 3.7 -1.2
v 1.4 3.7 -1.2
v 1.5 3.7 -1.2
v 2.2 3.7 -1.2
v 2.3 3.7 -1.2
v 2.4 3.7 -1.2
v 2.5 3.7 -1.2
v 1.2 3.7 -1.3
v 1.3 3.7 -1.3
v 1.4 3.7 -1.3
v 1.5 3.7 -1.3
v 2.2 3.7 -1.3
v 2.3 3.7 -1.3
v 2.4 3.7 -1.3
v 2.5 3.7 -1.3
v 1.1 4 -1.2
v 2.6 4 -1.2
v 1.4 4 -1.4
v 1.7 4 -1.4
v 2 4 -1.4
v 2.3 4 -1.4
v 1.3 4 -1.5
v 1.4 4 -1.5
v 1.7 4 -1.5
v 1.8 4 -1.5
v 1.9 4 -1.5
v 2 4 -1.5
v 2.3 4 -1.5
v 2.4 4 -1.5
v 1.5 4 -1.6
v 1.6 4 -1.6
v 2.1 4 -1.6
v 2.2 4 -1.6
v 1.5 4 -1.7
v 1.6 4 -1.7
v 2.1 4 -1.7
v 2.2 4 -1.7
v 1.3 4 -1.8
v 1.4 4 -1.8
v 1.7 4 -1.8
v 1.8 4 -1.8
v 1.9 4 -1.8
v 2 4 -1.8
v 2.3 4 -1.8
v 2.4 4 -1.8
v 1.4 4 -1.9
v 1.7 4 -1.9
v 2 4 -1.9
v 2.3 4 -1.9
v 1.1 4 -2.1
v 2.6 4 -2.1
v 1.4 4.1 -1.4
v 1.7 4.1 -1.4
v 2 4.1 -1.4
v 2.3 4.1 -1.4
v 1.3 4.1 -1.5
v 1.4 4.1 -1.5
v 1.7 4.1 -1.5
v 1.8 4.1 -1.5
v 1.9 4.1 -1.5
v 2 4.1 -1.5
v 2.3 4.1 -1.5
v 2.4 4.1 -1.5
v 1.5 4.1 -1.6
v 1.6 4.1 -1.6
v 2.1 4.1 -1.6
v 2.2 4.1 -1.6
v 1.5 4.1 -1.7
v 1.6 4.1 -1.7
v 2.1 4.1 -1.7
v 2.2 4.1 -1.7
v 1.3 4.1 -1.8
v 1.4 4.1 -1.8
v 1.7 4.1 -1.8
v 1.8 4.1 -1.8
v 1.9 4.1 -1.8
v 2 4.1 -1.8
v 2.3 4.1 -1.8
v 2.4 4.1 -1.8
v 1.4 4.1 -1.9
v 1.7 4.1 -1.9
v 2 4.1 -1.9
v 2.3 4.1 -1.9
v 1.1 4.1 -2.1
v 2.6 4.1 -2.1
v 1.1 4.1 -2.2
v 2.6 4.1 -2.2
v 1.1 4.2 -2.2
v 2.6 4.2 -2.2
v 1.1 4.2 -2.3
v 2.6 4.2 -2.3

# faces
f 4/5/1 2/5/1 1/5/1
f 5/5/1 2/5/1 4/5/1
f 6/3/1 4/3/1 3/3/1
f 6/3/1 5/3/1 4/3/1
f 7/3/1 5/3/1 6/3/1
f 8/3/1 5/3/1 7/3/1
f 9/3/1 5/3/1 8/3/1
f 10/3/1 5/3/1 9/3/1
f 11/3/1 5/3/1 10/3/1
f 14/2/1 13/2/1 12/2/1
f 15/2/1 13/2/1 14/2/1
f 18/2/1 17/2/1 16/2/1
f 19/2/1 17/2/1 18/2/1
f 22/5/1 21/5/1 20/5/1
f 23/5/1 21/5/1 22/5/1
f 26/2/1 25/2/1 24/2/1
f 27/2/1 25/2/1 26/2/1
f 32/5/1 29/5/1 28/5/1
f 33/5/1 29/5/1 32/5/1
f 34/5/1 31/5/1 30/5/1
f 35/5/1 31/5/1 34/5/1
f 38/5/1 37/5/1 36/5/1
f 39/5/1 37/5/1 38/5/1
f 42/5/1 41/5/1 40/5/1
f 43/5/1 41/5/1 42/5/1
f 48/5/1 45/5/1 44/5/1
f 49/5/1 45/5/1 48/5/1
f 50/5/1 47/5/1 46/5/1
f 51/5/1 47/5/1 50/5/1
f 54/2/1 53/2/1 52/2/1
f 55/2/1 53/2/1 54/2/1
f 58/5/1 57/5/1 56/5/1
f 59/5/1 57/5/1 58/5/1
f 62/2/1 61/2/1 60/2/1
f 63/2/1 61/2/1 62/2/1
f 64/2/1 61/2/1 63/2/1
f 67/2/1 66/2/1 65/2/1
f 68/2/1 66/2/1 67/2/1
f 71/5/1 70/5/1 69/5/1
f 72/5/1 71/5/1 69/5/1
f 73/5/1 72/5/1 69/5/1
f 74/5/1 72/5/1 73/5/1
f 75/5/2 76/5/2 77/5/2
f 75/5/2 77/5/2 78/5/2
f 75/5/2 78/5/2 79/5/2
f 79/5/2 78/5/2 80/5/2
f 81/2/2 82/2/2 83/2/2
f 83/2/2 82/2/2 84/2/2
f 84/2/2 82/2/2 85/2/2
f 86/2/2 87/2/2 88/2/2
f 88/2/2 87/2/2 89/2/2
f 90/2/2 91/2/2 92/2/2
f 92/2/2 91/2/2 93/2/2
f 94/5/2 95/5/2 96/5/2
f 96/5/2 95/5/2 97/5/2
f 98/5/2 99/5/2 102/5/2
f 102/5/2 99/5/2 103/5/2
f 100/5/2 101/5/2 104/5/2
f 104/5/2 101/5/2 105/5/2
f 106/5/2 107/5/2 108/5/2
f 108/5/2 107/5/2 109/5/2
f 110/5/2 111/5/2 112/5/2
f 112/5/2 111/5/2 113/5/2
f 114/2/2 115/2/2 116/2/2
f 116/2/2 115/2/2 117/2/2
f 118/5/2 119/5/2 122/5/2
f 122/5/2 119/5/2 123/5/2
f 120/5/2 121/5/2 124/5/2
f 124/5/2 121/5/2 125/5/2
f 126/5/2 127/5/2 128/5/2
f 128/5/2 127/5/2 129/5/2
f 130/2/2 131/2/2 132/2/2
f 132/2/2 131/2/2 133/2/2
f 134/2/2 135/2/2 136/2/2
f 136/2/2 135/2/2 137/2/2
f 138/5/2 139/5/2 141/5/2
f 141/5/2 139/5/2 142/5/2
f 140/3/2 141/3/2 143/3/2
f 141/3/2 142/3/2 143/3/2
f 143/3/2 142/3/2 144/3/2
f 144/3/2 142/3/2 145/3/2
f 145/3/2 142/3/2 146/3/2
f 146/3/2 142/3/2 147/3/2
f 147/3/2 142/3/2 148/3/2
f 151/2/3 150/2/3 149/2/3
f 152/2/3 150/2/3 151/2/3
f 157/2/3 156/2/3 155/2/3
f 158/2/3 156/2/3 157/2/3
f 161/2/3 160/2/3 159/2/3
f 162/2/3 160/2/3 161/2/3
f 165/2/3 164/2/3 163/2/3
f 166/2/3 164/2/3 165/2/3
f 169/2/3 168/2/3 167/2/3
f 170/2/3 168/2/3 169/2/3
f 171/3/3 154/3/3 153/3/3
f 172/3/3 154/3/3 171/3/3
f 175/5/3 174/5/3 173/5/3
f 176/5/3 174/5/3 175/5/3
f 177/5/3 174/5/3 176/5/3
f 178/5/3 174/5/3 177/5/3
f 179/5/3 174/5/3 178/5/3
f 180/5/3 178/5/3 177/5/3
f 181/5/3 178/5/3 180/5/3
f 182/5/3 174/5/3 179/5/3
f 183/5/3 181/5/3 180/5/3
f 183/5/3 182/5/3 181/5/3
f 184/5/3 174/5/3 182/5/3
f 184/5/3 182/5/3 183/5/3
f 185/5/3 183/5/3 180/5/3
f 186/5/3 174/5/3 184/5/3
f 187/5/3 185/5/3 180/5/3
f 187/5/3 186/5/3 185/5/3
f 188/5/3 174/5/3 186/5/3
f 188/5/3 186/5/3 187/5/3
f 189/5/3 187/5/3 180/5/3
f 190/5/3 174/5/3 188/5/3
f 191/5/3 189/5/3 180/5/3
f 191/5/3 190/5/3 189/5/3
f 192/5/3 190/5/3 191/5/3
f 193/5/3 174/5/3 190/5/3
f 193/5/3 190/5/3 192/5/3
f 194/5/3 175/5/3 173/5/3
f 196/5/3 192/5/3 191/5/3
f 197/5/3 192/5/3 196/5/3
f 198/5/3 174/5/3 193/5/3
f 199/5/3 197/5/3 196/5/3
f 199/5/3 198/5/3 197/5/3
f 199/5/3 195/5/3 194/5/3
f 199/5/3 194/5/3 173/5/3
f 199/5/3 196/5/3 195/5/3
f 200/5/3 174/5/3 198/5/3
f 200/5/3 198/5/3 199/5/3
f 205/4/3 204/4/3 203/4/3
f 209/5/3 208/5/3 207/5/3
f 210/5/3 208/5/3 209/5/3
f 213/5/3 212/5/3 211/5/3
f 214/5/3 212/5/3 213/5/3
f 215/4/3 205/4/3 203/4/3
f 215/4/3 206/4/3 205/4/3
f 216/4/3 206/4/3 215/4/3
f 217/4/3 202/4/3 201/4/3
f 218/2/3 203/2/3 202/2/3
f 218/4/3 202/4/3 217/4/3
f 219/4/3 215/4/3 203/4/3
f 219/2/3 203/2/3 218/2/3
f 220/4/3 215/4/3 219/4/3
f 223/5/3 222/5/3 221/5/3
f 224/5/3 222/5/3 223/5/3
f 227/5/3 226/5/3 225/5/3
f 228/5/3 226/5/3 227/5/3
f 231/5/3 230/5/3 229/5/3
f 232/5/3 230/5/3 231/5/3
f 235/5/3 234/5/3 233/5/3
f 236/5/3 234/5/3 235/5/3
f 239/5/3 238/5/3 237/5/3
f 240/5/3 238/5/3 239/5/3
f 243/5/3 242/5/3 241/5/3
f 244/5/3 242/5/3 243/5/3
f 247/3/3 246/3/3 245/3/3
f 248/3/3 246/3/3 247/3/3
f 251/3/3 250/3/3 249/3/3
f 252/3/3 250/3/3 251/3/3
f 253/2/4 254/2/4 255/2/4
f 255/2/4 254/2/4 256/2/4
f 257/5/4 258/5/4 259/5/4
f 259/5/4 258/5/4 260/5/4
f 261/5/4 262/5/4 263/5/4
f 263/5/4 262/5/4 264/5/4
f 265/5/4 266/5/4 267/5/4
f 267/5/4 266/5/4 268/5/4
f 269/5/4 270/5/4 271/5/4
f 271/5/4 270/5/4 272/5/4
f 273/5/4 274/5/4 275/5/4
f 275/5/4 274/5/4 276/5/4
f 277/5/4 278/5/4 279/5/4
f 279/5/4 278/5/4 280/5/4
f 281/5/4 282/5/4 283/5/4
f 283/5/4 282/5/4 284/5/4
f 285/5/4 286/5/4 287/5/4
f 287/5/4 286/5/4 288/5/4
f 289/5/4 290/5/4 292/5/4
f 290/3/4 291/3/4 293/3/4
f 292/5/4 290/5/4 293/5/4
f 293/3/4 291/3/4 294/3/4
f 297/5/5 296/5/5 295/5/5
f 298/5/5 296/5/5 297/5/5
f 301/2/5 300/2/5 299/2/5
f 302/2/5 300/2/5 301/2/5
f 303/2/5 301/2/5 299/2/5
f 304/2/5 300/2/5 302/2/5
f 305/2/5 301/2/5 303/2/5
f 306/2/5 301/2/5 305/2/5
f 307/2/5 304/2/5 302/2/5
f 308/2/5 304/2/5 307/2/5
f 311/5/5 310/5/5 309/5/5
f 312/5/5 310/5/5 311/5/5
f 321/2/5 314/2/5 313/2/5
f 322/2/5 314/2/5 321/2/5
f 323/2/5 316/2/5 315/2/5
f 324/2/5 316/2/5 323/2/5
f 325/2/5 318/2/5 317/2/5
f 326/2/5 318/2/5 325/2/5
f 327/2/5 320/2/5 319/2/5
f 328/2/5 320/2/5 327/2/5
f 331/3/5 330/3/5 329/3/5
f 332/3/5 330/3/5 331/3/5
f 333/5/6 334/5/6 335/5/6
f 335/5/6 334/5/6 336/5/6
f 337/2/6 338/2/6 339/2/6
f 339/2/6 338/2/6 340/2/6
f 337/2/6 339/2/6 341/2/6
f 341/2/6 339/2/6 342/2/6
f 340/2/6 338/2/6 343/2/6
f 343/2/6 338/2/6 344/2/6
f 345/2/6 346/2/6 353/2/6
f 353/2/6 346/2/6 354/2/6
f 347/2/6 348/2/6 355/2/6
f 355/2/6 348/2/6 356/2/6
f 349/2/6 350/2/6 357/2/6
f 357/2/6 350/2/6 358/2/6
f 351/2/6 352/2/6 359/2/6
f 359/2/6 352/2/6 360/2/6
f 361/3/6 362/3/6 363/3/6
f 363/3/6 362/3/6 364/3/6
f 364/3/6 362/3/6 365/3/6
f 365/3/6 362/3/6 366/3/6
f 361/3/6 363/3/6 367/3/6
f 367/3/6 363/3/6 368/3/6
f 364/3/6 365/3/6 369/3/6
f 369/3/6 365/3/6 370/3/6
f 370/3/6 365/3/6 371/3/6
f 371/3/6 365/3/6 372/3/6
f 366/3/6 362/3/6 373/3/6
f 373/3/6 362/3/6 374/3/6
f 375/3/6 376/3/6 379/3/6
f 379/3/6 376/3/6 380/3/6
f 377/3/6 378/3/6 381/3/6
f 381/3/6 378/3/6 382/3/6
f 361/3/6 367/3/6 383/3/6
f 370/3/6 371/3/6 386/3/6
f 386/3/6 371/3/6 387/3/6
f 374/3/6 362/3/6 390/3/6
f 383/3/6 384/3/6 391/3/6
f 386/3/6 387/3/6 392/3/6
f 387/3/6 388/3/6 392/3/6
f 385/3/6 386/3/6 392/3/6
f 392/3/6 388/3/6 393/3/6
f 389/3/6 390/3/6 394/3/6
f 383/3/6 391/3/6 395/3/6
f 393/3/6 394/3/6 395/3/6
f 392/3/6 393/3/6 395/3/6
f 361/3/6 383/3/6 395/3/6
f 391/3/6 392/3/6 395/3/6
f 394/3/6 390/3/6 396/3/6
f 395/3/6 394/3/6 396/3/6
f 390/3/6 362/3/6 396/3/6
f 397/5/6 398/5/6 402/5/6
f 402/5/6 398/5/6 403/5/6
f 399/5/6 400/5/6 406/5/6
f 406/5/6 400/5/6 407/5/6
f 403/5/6 404/5/6 409/5/6
f 401/5/6 402/5/6 409/5/6
f 402/5/6 403/5/6 409/5/6
f 409/5/6 404/5/6 410/5/6
f 407/5/6 408/5/6 411/5/6
f 406/5/6 407/5/6 411/5/6
f 405/5/6 406/5/6 411/5/6
f 411/5/6 408/5/6 412/5/6
f 401/5/6 409/5/6 413/5/6
f 410/5/6 404/5/6 414/5/6
f 405/5/6 411/5/6 415/5/6
f 412/5/6 408/5/6 416/5/6
f 401/5/6 413/5/6 417/5/6
f 413/5/6 414/5/6 417/5/6
f 417/5/6 414/5/6 418/5/6
f 414/5/6 404/5/6 419/5/6
f 418/5/6 414/5/6 419/5/6
f 419/5/6 404/5/6 420/5/6
f 415/5/6 416/5/6 421/5/6
f 405/5/6 415/5/6 421/5/6
f 421/5/6 416/5/6 422/5/6
f 416/5/6 408/5/6 423/5/6
f 422/5/6 416/5/6 423/5/6
f 423/5/6 408/5/6 424/5/6
f 418/5/6 419/5/6 425/5/6
f 425/5/6 419/5/6 426/5/6
f 422/5/6 423/5/6 427/5/6
f 427/5/6 423/5/6 428/5/6
f 429/3/6 430/3/6 431/3/6
f 431/3/6 430/3/6 432/3/6
f 433/3/6 434/3/6 435/3/6
f 435/3/6 434/3/6 436/3/6
