# MagicaVoxel @ Ephtracy

# group
o 

# material
mtllib Mesita de noche.mtl
usemtl palette

# normals
vn -1 0 0
vn 1 0 0
vn 0 0 1
vn 0 0 -1
vn 0 -1 0
vn 0 1 0

# texcoords
vt 0.306641 0.5
vt 0.365234 0.5
vt 0.974609 0.5
vt 0.990234 0.5

# verts
v 1.1 2.3 -1.6
v 1.1 2.3 -2.3
v 1.1 2.4 -1.6
v 1.1 2.4 -2.3
v 1.1 3.3 -1.6
v 1.1 3.3 -2.3
v 1.1 3.5 -1.6
v 1.1 3.5 -2.3
v 1.2 2.4 -1.7
v 1.2 2.4 -2.2
v 1.2 3.3 -1.7
v 1.2 3.3 -2.2
v 1.8 2.6 -1.7
v 1.8 2.6 -1.8
v 1.8 2.7 -1.7
v 1.8 2.7 -1.8
v 1.8 3 -1.7
v 1.8 3 -1.8
v 1.8 3.1 -1.7
v 1.8 3.1 -1.8
v 2.4 2.5 -1.7
v 2.4 2.5 -1.8
v 2.4 2.8 -1.7
v 2.4 2.8 -1.8
v 2.4 2.9 -1.7
v 2.4 2.9 -1.8
v 2.4 3.2 -1.7
v 2.4 3.2 -1.8
v 1.3 2.5 -1.7
v 1.3 2.5 -1.8
v 1.3 2.8 -1.7
v 1.3 2.8 -1.8
v 1.3 2.9 -1.7
v 1.3 2.9 -1.8
v 1.3 3.2 -1.7
v 1.3 3.2 -1.8
v 1.9 2.6 -1.7
v 1.9 2.6 -1.8
v 1.9 2.7 -1.7
v 1.9 2.7 -1.8
v 1.9 3 -1.7
v 1.9 3 -1.8
v 1.9 3.1 -1.7
v 1.9 3.1 -1.8
v 2.5 2.4 -1.7
v 2.5 2.4 -2.2
v 2.5 3.3 -1.7
v 2.5 3.3 -2.2
v 2.6 2.3 -1.6
v 2.6 2.3 -2.3
v 2.6 2.4 -1.6
v 2.6 2.4 -2.3
v 2.6 3.3 -1.6
v 2.6 3.3 -2.3
v 2.6 3.5 -1.6
v 2.6 3.5 -2.3
v 1.1 2.3 -1.6
v 1.1 2.4 -1.6
v 1.1 3.3 -1.6
v 1.1 3.5 -1.6
v 2.6 2.3 -1.6
v 2.6 2.4 -1.6
v 2.6 3.3 -1.6
v 2.6 3.5 -1.6
v 1.2 2.4 -1.7
v 1.2 3.3 -1.7
v 1.3 2.5 -1.7
v 1.3 2.8 -1.7
v 1.3 2.9 -1.7
v 1.3 3.2 -1.7
v 1.8 2.6 -1.7
v 1.8 2.7 -1.7
v 1.8 3 -1.7
v 1.8 3.1 -1.7
v 1.9 2.6 -1.7
v 1.9 2.7 -1.7
v 1.9 3 -1.7
v 1.9 3.1 -1.7
v 2.4 2.5 -1.7
v 2.4 2.8 -1.7
v 2.4 2.9 -1.7
v 2.4 3.2 -1.7
v 2.5 2.4 -1.7
v 2.5 3.3 -1.7
v 1.3 2.5 -1.8
v 1.3 2.8 -1.8
v 1.3 2.9 -1.8
v 1.3 3.2 -1.8
v 1.8 2.6 -1.8
v 1.8 2.7 -1.8
v 1.8 3 -1.8
v 1.8 3.1 -1.8
v 1.9 2.6 -1.8
v 1.9 2.7 -1.8
v 1.9 3 -1.8
v 1.9 3.1 -1.8
v 2.4 2.5 -1.8
v 2.4 2.8 -1.8
v 2.4 2.9 -1.8
v 2.4 3.2 -1.8
v 1.2 2.4 -2.2
v 1.2 3.3 -2.2
v 2.5 2.4 -2.2
v 2.5 3.3 -2.2
v 1.1 2.3 -2.3
v 1.1 2.4 -2.3
v 1.1 3.3 -2.3
v 1.1 3.5 -2.3
v 2.6 2.3 -2.3
v 2.6 2.4 -2.3
v 2.6 3.3 -2.3
v 2.6 3.5 -2.3
v 1.1 2.3 -1.6
v 2.6 2.3 -1.6
v 1.2 2.3 -1.7
v 2.5 2.3 -1.7
v 1.2 2.3 -2.2
v 2.5 2.3 -2.2
v 1.1 2.3 -2.3
v 2.6 2.3 -2.3
v 1.8 2.6 -1.7
v 1.9 2.6 -1.7
v 1.8 2.6 -1.8
v 1.9 2.6 -1.8
v 1.3 2.8 -1.7
v 2.4 2.8 -1.7
v 1.3 2.8 -1.8
v 2.4 2.8 -1.8
v 1.8 3 -1.7
v 1.9 3 -1.7
v 1.8 3 -1.8
v 1.9 3 -1.8
v 1.3 3.2 -1.7
v 2.4 3.2 -1.7
v 1.3 3.2 -1.8
v 2.4 3.2 -1.8
v 1.1 3.3 -1.6
v 2.6 3.3 -1.6
v 1.2 3.3 -1.7
v 2.5 3.3 -1.7
v 1.2 3.3 -2.2
v 2.5 3.3 -2.2
v 1.1 3.3 -2.3
v 2.6 3.3 -2.3
v 1.1 2.4 -1.6
v 2.6 2.4 -1.6
v 1.2 2.4 -1.7
v 2.5 2.4 -1.7
v 1.2 2.4 -2.2
v 2.5 2.4 -2.2
v 1.1 2.4 -2.3
v 2.6 2.4 -2.3
v 1.3 2.5 -1.7
v 2.4 2.5 -1.7
v 1.3 2.5 -1.8
v 2.4 2.5 -1.8
v 1.8 2.7 -1.7
v 1.9 2.7 -1.7
v 1.8 2.7 -1.8
v 1.9 2.7 -1.8
v 1.3 2.9 -1.7
v 2.4 2.9 -1.7
v 1.3 2.9 -1.8
v 2.4 2.9 -1.8
v 1.8 3.1 -1.7
v 1.9 3.1 -1.7
v 1.8 3.1 -1.8
v 1.9 3.1 -1.8
v 1.1 3.5 -1.6
v 2.6 3.5 -1.6
v 1.1 3.5 -2.3
v 2.6 3.5 -2.3

# faces
f 3/4/1 2/4/1 1/4/1
f 4/4/1 2/4/1 3/4/1
f 7/4/1 6/4/1 5/4/1
f 8/4/1 6/4/1 7/4/1
f 11/4/1 10/4/1 9/4/1
f 12/4/1 10/4/1 11/4/1
f 15/4/1 14/4/1 13/4/1
f 16/4/1 14/4/1 15/4/1
f 19/4/1 18/4/1 17/4/1
f 20/4/1 18/4/1 19/4/1
f 23/4/1 22/4/1 21/4/1
f 24/4/1 22/4/1 23/4/1
f 27/4/1 26/4/1 25/4/1
f 28/4/1 26/4/1 27/4/1
f 29/4/2 30/4/2 31/4/2
f 31/4/2 30/4/2 32/4/2
f 33/4/2 34/4/2 35/4/2
f 35/4/2 34/4/2 36/4/2
f 37/4/2 38/4/2 39/4/2
f 39/4/2 38/4/2 40/4/2
f 41/4/2 42/4/2 43/4/2
f 43/4/2 42/4/2 44/4/2
f 45/4/2 46/4/2 47/4/2
f 47/4/2 46/4/2 48/4/2
f 49/4/2 50/4/2 51/4/2
f 51/4/2 50/4/2 52/4/2
f 53/4/2 54/4/2 55/4/2
f 55/4/2 54/4/2 56/4/2
f 61/4/3 58/4/3 57/4/3
f 62/4/3 58/4/3 61/4/3
f 63/4/3 60/4/3 59/4/3
f 64/4/3 60/4/3 63/4/3
f 67/4/3 66/4/3 65/4/3
f 68/4/3 66/4/3 67/4/3
f 69/4/3 66/4/3 68/4/3
f 70/4/3 66/4/3 69/4/3
f 75/4/3 72/4/3 71/4/3
f 76/4/3 72/4/3 75/4/3
f 77/4/3 74/4/3 73/4/3
f 78/4/3 74/4/3 77/4/3
f 79/4/3 67/4/3 65/4/3
f 80/4/3 69/4/3 68/4/3
f 81/4/3 69/4/3 80/4/3
f 82/4/3 66/4/3 70/4/3
f 83/4/3 81/4/3 80/4/3
f 83/4/3 82/4/3 81/4/3
f 83/4/3 80/4/3 79/4/3
f 83/4/3 79/4/3 65/4/3
f 84/4/3 66/4/3 82/4/3
f 84/4/3 82/4/3 83/4/3
f 89/3/3 86/3/3 85/3/3
f 90/3/3 86/3/3 89/3/3
f 91/3/3 88/3/3 87/3/3
f 92/3/3 88/3/3 91/3/3
f 93/3/3 89/3/3 85/3/3
f 94/3/3 86/3/3 90/3/3
f 95/3/3 91/3/3 87/3/3
f 96/3/3 88/3/3 92/3/3
f 97/3/3 93/3/3 85/3/3
f 97/3/3 94/3/3 93/3/3
f 98/3/3 86/3/3 94/3/3
f 98/3/3 94/3/3 97/3/3
f 99/3/3 96/3/3 95/3/3
f 99/3/3 95/3/3 87/3/3
f 100/3/3 88/3/3 96/3/3
f 100/3/3 96/3/3 99/3/3
f 101/4/4 102/4/4 103/4/4
f 103/4/4 102/4/4 104/4/4
f 105/4/4 106/4/4 109/4/4
f 109/4/4 106/4/4 110/4/4
f 107/4/4 108/4/4 111/4/4
f 111/4/4 108/4/4 112/4/4
f 115/4/5 114/4/5 113/4/5
f 116/4/5 114/4/5 115/4/5
f 117/4/5 115/4/5 113/4/5
f 117/2/5 116/2/5 115/2/5
f 118/4/5 114/4/5 116/4/5
f 118/2/5 116/2/5 117/2/5
f 119/4/5 117/4/5 113/4/5
f 119/4/5 118/4/5 117/4/5
f 120/4/5 114/4/5 118/4/5
f 120/4/5 118/4/5 119/4/5
f 123/4/5 122/4/5 121/4/5
f 124/4/5 122/4/5 123/4/5
f 127/4/5 126/4/5 125/4/5
f 128/4/5 126/4/5 127/4/5
f 131/4/5 130/4/5 129/4/5
f 132/4/5 130/4/5 131/4/5
f 135/4/5 134/4/5 133/4/5
f 136/4/5 134/4/5 135/4/5
f 139/4/5 138/4/5 137/4/5
f 140/4/5 138/4/5 139/4/5
f 141/4/5 139/4/5 137/4/5
f 142/4/5 138/4/5 140/4/5
f 143/4/5 141/4/5 137/4/5
f 143/4/5 142/4/5 141/4/5
f 144/4/5 138/4/5 142/4/5
f 144/4/5 142/4/5 143/4/5
f 145/4/6 146/4/6 147/4/6
f 147/4/6 146/4/6 148/4/6
f 145/4/6 147/4/6 149/4/6
f 148/4/6 146/4/6 150/4/6
f 145/4/6 149/4/6 151/4/6
f 149/4/6 150/4/6 151/4/6
f 150/4/6 146/4/6 152/4/6
f 151/4/6 150/4/6 152/4/6
f 153/4/6 154/4/6 155/4/6
f 155/4/6 154/4/6 156/4/6
f 157/4/6 158/4/6 159/4/6
f 159/4/6 158/4/6 160/4/6
f 161/4/6 162/4/6 163/4/6
f 163/4/6 162/4/6 164/4/6
f 165/4/6 166/4/6 167/4/6
f 167/4/6 166/4/6 168/4/6
f 169/4/6 170/4/6 171/4/6
f 171/4/6 170/4/6 172/4/6
