# MagicaVoxel @ Ephtracy

# group
o 

# material
mtllib Isla cocina.mtl
usemtl palette

# normals
vn -1 0 0
vn 1 0 0
vn 0 0 1
vn 0 0 -1
vn 0 -1 0
vn 0 1 0

# texcoords
vt 0.306641 0.5
vt 0.974609 0.5
vt 0.990234 0.5

# verts
v 0.2 3.6 -3
v 0.2 3.6 -3.1
v 0.2 3.8 -1.2
v 0.2 3.8 -3
v 0.2 4 -1.2
v 0.2 4 -3.1
v 0.8 2.4 -1.6
v 0.8 2.4 -2.5
v 0.8 3.8 -1.6
v 0.8 3.8 -2.5
v 3.2 2.4 -1.6
v 3.2 2.4 -2.5
v 3.2 3.8 -1.6
v 3.2 3.8 -2.5
v 3.7 3.6 -3
v 3.7 3.6 -3.1
v 3.7 3.8 -1.2
v 3.7 3.8 -3
v 3.7 4 -1.2
v 3.7 4 -3.1
v 0.2 3.8 -1.2
v 0.2 4 -1.2
v 3.7 3.8 -1.2
v 3.7 4 -1.2
v 0.8 2.4 -1.6
v 0.8 3.8 -1.6
v 3.2 2.4 -1.6
v 3.2 3.8 -1.6
v 0.2 3.6 -3
v 0.2 3.8 -3
v 3.7 3.6 -3
v 3.7 3.8 -3
v 0.8 2.4 -2.5
v 0.8 3.8 -2.5
v 3.2 2.4 -2.5
v 3.2 3.8 -2.5
v 0.2 3.6 -3.1
v 0.2 4 -3.1
v 3.7 3.6 -3.1
v 3.7 4 -3.1
v 0.8 2.4 -1.6
v 3.2 2.4 -1.6
v 0.8 2.4 -2.5
v 3.2 2.4 -2.5
v 0.2 3.6 -3
v 3.7 3.6 -3
v 0.2 3.6 -3.1
v 3.7 3.6 -3.1
v 0.2 3.8 -1.2
v 3.7 3.8 -1.2
v 0.8 3.8 -1.6
v 3.2 3.8 -1.6
v 0.8 3.8 -2.5
v 3.2 3.8 -2.5
v 0.2 3.8 -3
v 3.7 3.8 -3
v 0.2 4 -1.2
v 3.7 4 -1.2
v 0.2 4 -3.1
v 3.7 4 -3.1

# faces
f 4/2/1 2/2/1 1/2/1
f 5/2/1 4/2/1 3/2/1
f 6/2/1 2/2/1 4/2/1
f 6/2/1 4/2/1 5/2/1
f 9/3/1 8/3/1 7/3/1
f 10/3/1 8/3/1 9/3/1
f 11/3/2 12/3/2 13/3/2
f 13/3/2 12/3/2 14/3/2
f 15/2/2 16/2/2 18/2/2
f 17/2/2 18/2/2 19/2/2
f 18/2/2 16/2/2 20/2/2
f 19/2/2 18/2/2 20/2/2
f 23/2/3 22/2/3 21/2/3
f 24/2/3 22/2/3 23/2/3
f 27/3/3 26/3/3 25/3/3
f 28/3/3 26/3/3 27/3/3
f 31/2/3 30/2/3 29/2/3
f 32/2/3 30/2/3 31/2/3
f 33/3/4 34/3/4 35/3/4
f 35/3/4 34/3/4 36/3/4
f 37/2/4 38/2/4 39/2/4
f 39/2/4 38/2/4 40/2/4
f 43/3/5 42/3/5 41/3/5
f 44/3/5 42/3/5 43/3/5
f 47/2/5 46/2/5 45/2/5
f 48/2/5 46/2/5 47/2/5
f 51/2/5 50/2/5 49/2/5
f 52/2/5 50/2/5 51/2/5
f 53/2/5 51/2/5 49/2/5
f 54/2/5 50/2/5 52/2/5
f 55/2/5 53/2/5 49/2/5
f 55/2/5 54/2/5 53/2/5
f 56/2/5 50/2/5 54/2/5
f 56/2/5 54/2/5 55/2/5
f 57/2/6 58/2/6 59/2/6
f 59/2/6 58/2/6 60/2/6
