# MagicaVoxel @ Ephtracy

# group
o 

# material
mtllib Microondas.mtl
usemtl palette

# normals
vn -1 0 0
vn 1 0 0
vn 0 0 1
vn 0 0 -1
vn 0 -1 0
vn 0 1 0

# texcoords
vt 0.306641 0.5
vt 0.970703 0.5
vt 0.974609 0.5
vt 0.982422 0.5
vt 0.990234 0.5

# verts
v 1 2.5 -1.3
v 1 2.5 -1.4
v 1 2.5 -2.3
v 1 3.6 -1.3
v 1 3.6 -1.4
v 1 3.6 -2.3
v 2.3 2.6 -1.1
v 2.3 2.6 -1.3
v 2.3 2.6 -1.4
v 2.3 2.7 -1.2
v 2.3 2.7 -1.3
v 2.3 3.4 -1.2
v 2.3 3.4 -1.3
v 2.3 3.5 -1.1
v 2.3 3.5 -1.3
v 2.3 3.5 -1.4
v 2.5 2.6 -1.2
v 2.5 2.6 -1.3
v 2.5 2.7 -1.2
v 2.5 2.7 -1.3
v 2.5 2.9 -1.2
v 2.5 2.9 -1.3
v 2.5 3 -1.2
v 2.5 3 -1.3
v 2.6 3.3 -1.3
v 2.6 3.3 -1.4
v 2.6 3.4 -1.3
v 2.6 3.4 -1.4
v 1.2 2.6 -1.3
v 1.2 2.6 -1.4
v 1.2 3.5 -1.3
v 1.2 3.5 -1.4
v 2.4 2.6 -1.1
v 2.4 2.6 -1.3
v 2.4 2.7 -1.2
v 2.4 2.7 -1.3
v 2.4 3.4 -1.2
v 2.4 3.4 -1.3
v 2.4 3.5 -1.1
v 2.4 3.5 -1.3
v 2.5 3.3 -1.3
v 2.5 3.3 -1.4
v 2.5 3.4 -1.3
v 2.5 3.4 -1.4
v 2.6 2.6 -1.2
v 2.6 2.6 -1.3
v 2.6 2.7 -1.2
v 2.6 2.7 -1.3
v 2.6 2.9 -1.2
v 2.6 2.9 -1.3
v 2.6 3 -1.2
v 2.6 3 -1.3
v 2.7 2.5 -1.3
v 2.7 2.5 -1.4
v 2.7 2.5 -2.3
v 2.7 3.6 -1.3
v 2.7 3.6 -1.4
v 2.7 3.6 -2.3
v 2.3 2.6 -1.1
v 2.3 3.5 -1.1
v 2.4 2.6 -1.1
v 2.4 3.5 -1.1
v 2.5 2.6 -1.2
v 2.5 2.7 -1.2
v 2.5 2.9 -1.2
v 2.5 3 -1.2
v 2.6 2.6 -1.2
v 2.6 2.7 -1.2
v 2.6 2.9 -1.2
v 2.6 3 -1.2
v 1 2.5 -1.3
v 1 3.6 -1.3
v 1.2 2.6 -1.3
v 1.2 3.5 -1.3
v 2.3 2.6 -1.3
v 2.3 2.7 -1.3
v 2.3 3.4 -1.3
v 2.3 3.5 -1.3
v 2.4 2.6 -1.3
v 2.4 2.7 -1.3
v 2.4 3.4 -1.3
v 2.4 3.5 -1.3
v 2.5 2.6 -1.3
v 2.5 2.7 -1.3
v 2.5 2.9 -1.3
v 2.5 3 -1.3
v 2.5 3.3 -1.3
v 2.5 3.4 -1.3
v 2.6 2.6 -1.3
v 2.6 2.7 -1.3
v 2.6 2.9 -1.3
v 2.6 3 -1.3
v 2.6 3.3 -1.3
v 2.6 3.4 -1.3
v 2.7 2.5 -1.3
v 2.7 3.6 -1.3
v 1.2 2.6 -1.4
v 1.2 3.5 -1.4
v 2.3 2.6 -1.4
v 2.3 3.5 -1.4
v 2.5 3.3 -1.4
v 2.5 3.4 -1.4
v 2.6 3.3 -1.4
v 2.6 3.4 -1.4
v 2.3 2.7 -1.2
v 2.3 3.4 -1.2
v 2.4 2.7 -1.2
v 2.4 3.4 -1.2
v 1 2.5 -2.3
v 1 3.6 -2.3
v 1.1 2.6 -2.3
v 1.1 3.5 -2.3
v 2.6 2.6 -2.3
v 2.6 3.5 -2.3
v 2.7 2.5 -2.3
v 2.7 3.6 -2.3
v 1 2.5 -1.3
v 2.7 2.5 -1.3
v 1 2.5 -1.4
v 2.7 2.5 -1.4
v 1 2.5 -2.3
v 2.7 2.5 -2.3
v 2.3 2.6 -1.1
v 2.4 2.6 -1.1
v 2.5 2.6 -1.2
v 2.6 2.6 -1.2
v 2.3 2.6 -1.3
v 2.4 2.6 -1.3
v 2.5 2.6 -1.3
v 2.6 2.6 -1.3
v 2.5 2.9 -1.2
v 2.6 2.9 -1.2
v 2.5 2.9 -1.3
v 2.6 2.9 -1.3
v 2.3 3.4 -1.2
v 2.4 3.4 -1.2
v 2.3 3.4 -1.3
v 2.4 3.4 -1.3
v 2.5 3.4 -1.3
v 2.6 3.4 -1.3
v 2.5 3.4 -1.4
v 2.6 3.4 -1.4
v 1.2 3.5 -1.3
v 2.3 3.5 -1.3
v 1.2 3.5 -1.4
v 2.3 3.5 -1.4
v 1.2 2.6 -1.3
v 2.3 2.6 -1.3
v 1.2 2.6 -1.4
v 2.3 2.6 -1.4
v 2.3 2.7 -1.2
v 2.4 2.7 -1.2
v 2.5 2.7 -1.2
v 2.6 2.7 -1.2
v 2.3 2.7 -1.3
v 2.4 2.7 -1.3
v 2.5 2.7 -1.3
v 2.6 2.7 -1.3
v 2.5 3 -1.2
v 2.6 3 -1.2
v 2.5 3 -1.3
v 2.6 3 -1.3
v 2.5 3.3 -1.3
v 2.6 3.3 -1.3
v 2.5 3.3 -1.4
v 2.6 3.3 -1.4
v 2.3 3.5 -1.1
v 2.4 3.5 -1.1
v 2.3 3.5 -1.3
v 2.4 3.5 -1.3
v 1 3.6 -1.3
v 2.7 3.6 -1.3
v 1 3.6 -1.4
v 2.7 3.6 -1.4
v 1 3.6 -2.3
v 2.7 3.6 -2.3

# faces
f 4/4/1 2/4/1 1/4/1
f 5/2/1 3/2/1 2/2/1
f 5/4/1 2/4/1 4/4/1
f 6/2/1 3/2/1 5/2/1
f 10/2/1 8/2/1 7/2/1
f 11/4/1 9/4/1 8/4/1
f 11/2/1 8/2/1 10/2/1
f 12/2/1 10/2/1 7/2/1
f 13/4/1 9/4/1 11/4/1
f 14/2/1 12/2/1 7/2/1
f 14/2/1 13/2/1 12/2/1
f 15/4/1 9/4/1 13/4/1
f 15/2/1 13/2/1 14/2/1
f 16/4/1 9/4/1 15/4/1
f 19/2/1 18/2/1 17/2/1
f 20/2/1 18/2/1 19/2/1
f 23/2/1 22/2/1 21/2/1
f 24/2/1 22/2/1 23/2/1
f 27/4/1 26/4/1 25/4/1
f 28/4/1 26/4/1 27/4/1
f 29/4/2 30/4/2 31/4/2
f 31/4/2 30/4/2 32/4/2
f 33/2/2 34/2/2 35/2/2
f 35/2/2 34/2/2 36/2/2
f 33/2/2 35/2/2 37/2/2
f 33/2/2 37/2/2 39/2/2
f 37/2/2 38/2/2 39/2/2
f 39/2/2 38/2/2 40/2/2
f 41/4/2 42/4/2 43/4/2
f 43/4/2 42/4/2 44/4/2
f 45/2/2 46/2/2 47/2/2
f 47/2/2 46/2/2 48/2/2
f 49/2/2 50/2/2 51/2/2
f 51/2/2 50/2/2 52/2/2
f 53/4/2 54/4/2 56/4/2
f 54/2/2 55/2/2 57/2/2
f 56/4/2 54/4/2 57/4/2
f 57/2/2 55/2/2 58/2/2
f 61/2/3 60/2/3 59/2/3
f 62/2/3 60/2/3 61/2/3
f 67/2/3 64/2/3 63/2/3
f 68/2/3 64/2/3 67/2/3
f 69/2/3 66/2/3 65/2/3
f 70/2/3 66/2/3 69/2/3
f 73/4/3 72/4/3 71/4/3
f 74/4/3 72/4/3 73/4/3
f 75/4/3 73/4/3 71/4/3
f 78/4/3 72/4/3 74/4/3
f 79/4/3 75/4/3 71/4/3
f 80/4/3 77/4/3 76/4/3
f 81/4/3 77/4/3 80/4/3
f 82/4/3 72/4/3 78/4/3
f 83/4/3 79/4/3 71/4/3
f 83/4/3 82/4/3 81/4/3
f 83/4/3 81/4/3 80/4/3
f 83/4/3 80/4/3 79/4/3
f 84/4/3 82/4/3 83/4/3
f 85/4/3 82/4/3 84/4/3
f 86/4/3 82/4/3 85/4/3
f 87/4/3 82/4/3 86/4/3
f 88/4/3 82/4/3 87/4/3
f 89/4/3 83/4/3 71/4/3
f 90/4/3 85/4/3 84/4/3
f 91/4/3 85/4/3 90/4/3
f 92/4/3 87/4/3 86/4/3
f 93/4/3 87/4/3 92/4/3
f 94/4/3 82/4/3 88/4/3
f 95/4/3 93/4/3 92/4/3
f 95/4/3 94/4/3 93/4/3
f 95/4/3 91/4/3 90/4/3
f 95/4/3 89/4/3 71/4/3
f 95/4/3 92/4/3 91/4/3
f 95/4/3 90/4/3 89/4/3
f 96/4/3 72/4/3 82/4/3
f 96/4/3 94/4/3 95/4/3
f 96/4/3 82/4/3 94/4/3
f 99/3/3 98/3/3 97/3/3
f 100/3/3 98/3/3 99/3/3
f 103/3/3 102/3/3 101/3/3
f 104/3/3 102/3/3 103/3/3
f 105/2/4 106/2/4 107/2/4
f 107/2/4 106/2/4 108/2/4
f 109/2/4 110/2/4 111/2/4
f 111/2/4 110/2/4 112/2/4
f 109/2/4 111/2/4 113/2/4
f 111/4/4 112/4/4 113/4/4
f 112/2/4 110/2/4 114/2/4
f 113/4/4 112/4/4 114/4/4
f 109/2/4 113/2/4 115/2/4
f 113/2/4 114/2/4 115/2/4
f 114/2/4 110/2/4 116/2/4
f 115/2/4 114/2/4 116/2/4
f 119/4/5 118/4/5 117/4/5
f 120/4/5 118/4/5 119/4/5
f 121/2/5 120/2/5 119/2/5
f 122/2/5 120/2/5 121/2/5
f 127/2/5 124/2/5 123/2/5
f 128/2/5 124/2/5 127/2/5
f 129/2/5 126/2/5 125/2/5
f 130/2/5 126/2/5 129/2/5
f 133/2/5 132/2/5 131/2/5
f 134/2/5 132/2/5 133/2/5
f 137/2/5 136/2/5 135/2/5
f 138/2/5 136/2/5 137/2/5
f 141/4/5 140/4/5 139/4/5
f 142/4/5 140/4/5 141/4/5
f 145/4/5 144/4/5 143/4/5
f 146/4/5 144/4/5 145/4/5
f 147/4/6 148/4/6 149/4/6
f 149/4/6 148/4/6 150/4/6
f 151/2/6 152/2/6 155/2/6
f 155/2/6 152/2/6 156/2/6
f 153/2/6 154/2/6 157/2/6
f 157/2/6 154/2/6 158/2/6
f 159/2/6 160/2/6 161/2/6
f 161/2/6 160/2/6 162/2/6
f 163/4/6 164/4/6 165/4/6
f 165/4/6 164/4/6 166/4/6
f 167/2/6 168/2/6 169/2/6
f 169/2/6 168/2/6 170/2/6
f 171/4/6 172/4/6 173/4/6
f 173/4/6 172/4/6 174/4/6
f 173/2/6 174/2/6 175/2/6
f 175/2/6 174/2/6 176/2/6
