# MagicaVoxel @ Ephtracy

# group
o 

# material
mtllib Trono.mtl
usemtl palette

# normals
vn -1 0 0
vn 1 0 0
vn 0 0 1
vn 0 0 -1
vn 0 -1 0
vn 0 1 0

# texcoords
vt 0.978516 0.5
vt 0.982422 0.5
vt 0.986328 0.5

# verts
v 0.9 2.2 -0.9
v 0.9 2.2 -2
v 0.9 2.3 -2
v 0.9 2.3 -2.1
v 0.9 2.4 -0.9
v 0.9 2.4 -1.1
v 0.9 2.5 -1.1
v 0.9 2.5 -1.2
v 0.9 2.6 -1.2
v 0.9 2.6 -1.3
v 0.9 2.7 -1.3
v 0.9 2.7 -1.4
v 0.9 2.8 -1.4
v 0.9 2.8 -1.5
v 0.9 2.9 -1.5
v 0.9 2.9 -1.6
v 0.9 3 -1.6
v 0.9 3 -1.7
v 0.9 3.1 -1.7
v 0.9 3.1 -1.8
v 0.9 3.2 -1.8
v 0.9 3.2 -1.9
v 0.9 3.3 -1.9
v 0.9 3.3 -2.1
v 1 2.2 -0.8
v 1 2.2 -0.9
v 1 2.2 -2
v 1 2.2 -2.1
v 1 2.3 -2
v 1 2.3 -2.1
v 1 2.4 -0.8
v 1 2.4 -0.9
v 1 2.4 -1.1
v 1 2.5 -0.9
v 1 2.5 -1.1
v 1 2.5 -1.2
v 1 2.6 -1.1
v 1 2.6 -1.2
v 1 3.3 -1.9
v 1 3.3 -2.1
v 1 3.6 -1.9
v 1 3.6 -2.1
v 1.1 2 -0.9
v 1.1 2 -1.2
v 1.1 2 -1.6
v 1.1 2 -1.9
v 1.1 2.2 -0.9
v 1.1 2.2 -1.2
v 1.1 2.2 -1.6
v 1.1 2.2 -1.9
v 1.1 3.6 -1.9
v 1.1 3.6 -2.1
v 1.1 3.7 -1.9
v 1.1 3.7 -2.1
v 1.2 3.7 -1.9
v 1.2 3.7 -2.1
v 1.2 3.8 -1.9
v 1.2 3.8 -2.1
v 1.3 3.6 -1.9
v 1.3 3.6 -2
v 1.3 3.7 -1.9
v 1.3 3.7 -2
v 1.4 3.4 -1.9
v 1.4 3.4 -2
v 1.4 3.6 -1.9
v 1.4 3.6 -2
v 1.9 3.4 -1.9
v 1.9 3.4 -2.1
v 1.9 3.6 -1.9
v 1.9 3.6 -2.1
v 2 2 -0.9
v 2 2 -1.2
v 2 2 -1.6
v 2 2 -1.9
v 2 2.2 -0.9
v 2 2.2 -1.2
v 2 2.2 -1.6
v 2 2.2 -1.9
v 2 3.6 -1.9
v 2 3.6 -2.1
v 2 3.7 -1.9
v 2 3.7 -2.1
v 2.1 3.7 -1.9
v 2.1 3.7 -2.1
v 2.1 3.8 -1.9
v 2.1 3.8 -2.1
v 2.2 3.6 -1.9
v 2.2 3.6 -2
v 2.2 3.7 -1.9
v 2.2 3.7 -2
v 2.3 3.4 -1.9
v 2.3 3.4 -2
v 2.3 3.6 -1.9
v 2.3 3.6 -2
v 2.4 2.6 -1.3
v 2.4 2.6 -1.9
v 2.4 2.7 -1.3
v 2.4 2.7 -1.4
v 2.4 2.8 -1.4
v 2.4 2.8 -1.5
v 2.4 2.9 -1.5
v 2.4 2.9 -1.6
v 2.4 3 -1.6
v 2.4 3 -1.7
v 2.4 3.1 -1.7
v 2.4 3.1 -1.8
v 2.4 3.2 -1.8
v 2.4 3.2 -1.9
v 1 2.6 -1.3
v 1 2.6 -1.9
v 1 2.7 -1.3
v 1 2.7 -1.4
v 1 2.8 -1.4
v 1 2.8 -1.5
v 1 2.9 -1.5
v 1 2.9 -1.6
v 1 3 -1.6
v 1 3 -1.7
v 1 3.1 -1.7
v 1 3.1 -1.8
v 1 3.2 -1.8
v 1 3.2 -1.9
v 1.1 3.4 -1.9
v 1.1 3.4 -2
v 1.1 3.6 -1.9
v 1.1 3.6 -2
v 1.2 3.6 -1.9
v 1.2 3.6 -2
v 1.2 3.7 -1.9
v 1.2 3.7 -2
v 1.3 3.7 -1.9
v 1.3 3.7 -2.1
v 1.3 3.8 -1.9
v 1.3 3.8 -2.1
v 1.4 2 -0.9
v 1.4 2 -1.2
v 1.4 2 -1.6
v 1.4 2 -1.9
v 1.4 2.2 -0.9
v 1.4 2.2 -1.2
v 1.4 2.2 -1.6
v 1.4 2.2 -1.9
v 1.4 3.6 -1.9
v 1.4 3.6 -2.1
v 1.4 3.7 -1.9
v 1.4 3.7 -2.1
v 1.5 3.4 -1.9
v 1.5 3.4 -2.1
v 1.5 3.6 -1.9
v 1.5 3.6 -2.1
v 2 3.4 -1.9
v 2 3.4 -2
v 2 3.6 -1.9
v 2 3.6 -2
v 2.1 3.6 -1.9
v 2.1 3.6 -2
v 2.1 3.7 -1.9
v 2.1 3.7 -2
v 2.2 3.7 -1.9
v 2.2 3.7 -2.1
v 2.2 3.8 -1.9
v 2.2 3.8 -2.1
v 2.3 2 -0.9
v 2.3 2 -1.2
v 2.3 2 -1.6
v 2.3 2 -1.9
v 2.3 2.2 -0.9
v 2.3 2.2 -1.2
v 2.3 2.2 -1.6
v 2.3 2.2 -1.9
v 2.3 3.6 -1.9
v 2.3 3.6 -2.1
v 2.3 3.7 -1.9
v 2.3 3.7 -2.1
v 2.4 2.2 -0.8
v 2.4 2.2 -0.9
v 2.4 2.2 -2
v 2.4 2.2 -2.1
v 2.4 2.3 -2
v 2.4 2.3 -2.1
v 2.4 2.4 -0.8
v 2.4 2.4 -0.9
v 2.4 2.4 -1.1
v 2.4 2.5 -0.9
v 2.4 2.5 -1.1
v 2.4 2.5 -1.2
v 2.4 2.6 -1.1
v 2.4 2.6 -1.2
v 2.4 3.3 -1.9
v 2.4 3.3 -2.1
v 2.4 3.6 -1.9
v 2.4 3.6 -2.1
v 2.5 2.2 -0.9
v 2.5 2.2 -2
v 2.5 2.3 -2
v 2.5 2.3 -2.1
v 2.5 2.4 -0.9
v 2.5 2.4 -1.1
v 2.5 2.5 -1.1
v 2.5 2.5 -1.2
v 2.5 2.6 -1.2
v 2.5 2.6 -1.3
v 2.5 2.7 -1.3
v 2.5 2.7 -1.4
v 2.5 2.8 -1.4
v 2.5 2.8 -1.5
v 2.5 2.9 -1.5
v 2.5 2.9 -1.6
v 2.5 3 -1.6
v 2.5 3 -1.7
v 2.5 3.1 -1.7
v 2.5 3.1 -1.8
v 2.5 3.2 -1.8
v 2.5 3.2 -1.9
v 2.5 3.3 -1.9
v 2.5 3.3 -2.1
v 1 2.2 -0.8
v 1 2.4 -0.8
v 2.4 2.2 -0.8
v 2.4 2.4 -0.8
v 0.9 2.2 -0.9
v 0.9 2.4 -0.9
v 1 2.2 -0.9
v 1 2.4 -0.9
v 1 2.5 -0.9
v 1.1 2 -0.9
v 1.1 2.2 -0.9
v 1.4 2 -0.9
v 1.4 2.2 -0.9
v 2 2 -0.9
v 2 2.2 -0.9
v 2.3 2 -0.9
v 2.3 2.2 -0.9
v 2.4 2.2 -0.9
v 2.4 2.4 -0.9
v 2.4 2.5 -0.9
v 2.5 2.2 -0.9
v 2.5 2.4 -0.9
v 0.9 2.4 -1.1
v 0.9 2.5 -1.1
v 1 2.4 -1.1
v 1 2.5 -1.1
v 1 2.6 -1.1
v 2.4 2.4 -1.1
v 2.4 2.5 -1.1
v 2.4 2.6 -1.1
v 2.5 2.4 -1.1
v 2.5 2.5 -1.1
v 0.9 2.5 -1.2
v 0.9 2.6 -1.2
v 1 2.5 -1.2
v 1 2.6 -1.2
v 2.4 2.5 -1.2
v 2.4 2.6 -1.2
v 2.5 2.5 -1.2
v 2.5 2.6 -1.2
v 0.9 2.6 -1.3
v 0.9 2.7 -1.3
v 1 2.6 -1.3
v 1 2.7 -1.3
v 2.4 2.6 -1.3
v 2.4 2.7 -1.3
v 2.5 2.6 -1.3
v 2.5 2.7 -1.3
v 0.9 2.7 -1.4
v 0.9 2.8 -1.4
v 1 2.7 -1.4
v 1 2.8 -1.4
v 2.4 2.7 -1.4
v 2.4 2.8 -1.4
v 2.5 2.7 -1.4
v 2.5 2.8 -1.4
v 0.9 2.8 -1.5
v 0.9 2.9 -1.5
v 1 2.8 -1.5
v 1 2.9 -1.5
v 2.4 2.8 -1.5
v 2.4 2.9 -1.5
v 2.5 2.8 -1.5
v 2.5 2.9 -1.5
v 0.9 2.9 -1.6
v 0.9 3 -1.6
v 1 2.9 -1.6
v 1 3 -1.6
v 1.1 2 -1.6
v 1.1 2.2 -1.6
v 1.4 2 -1.6
v 1.4 2.2 -1.6
v 2 2 -1.6
v 2 2.2 -1.6
v 2.3 2 -1.6
v 2.3 2.2 -1.6
v 2.4 2.9 -1.6
v 2.4 3 -1.6
v 2.5 2.9 -1.6
v 2.5 3 -1.6
v 0.9 3 -1.7
v 0.9 3.1 -1.7
v 1 3 -1.7
v 1 3.1 -1.7
v 2.4 3 -1.7
v 2.4 3.1 -1.7
v 2.5 3 -1.7
v 2.5 3.1 -1.7
v 0.9 3.1 -1.8
v 0.9 3.2 -1.8
v 1 3.1 -1.8
v 1 3.2 -1.8
v 2.4 3.1 -1.8
v 2.4 3.2 -1.8
v 2.5 3.1 -1.8
v 2.5 3.2 -1.8
v 0.9 3.2 -1.9
v 0.9 3.3 -1.9
v 1 2.6 -1.9
v 1 3.2 -1.9
v 1 3.3 -1.9
v 1 3.6 -1.9
v 1.1 3.4 -1.9
v 1.1 3.6 -1.9
v 1.1 3.7 -1.9
v 1.2 3.6 -1.9
v 1.2 3.7 -1.9
v 1.2 3.8 -1.9
v 1.3 3.6 -1.9
v 1.3 3.7 -1.9
v 1.3 3.8 -1.9
v 1.4 3.4 -1.9
v 1.4 3.6 -1.9
v 1.4 3.7 -1.9
v 1.5 3.4 -1.9
v 1.5 3.6 -1.9
v 1.9 3.4 -1.9
v 1.9 3.6 -1.9
v 2 3.4 -1.9
v 2 3.6 -1.9
v 2 3.7 -1.9
v 2.1 3.6 -1.9
v 2.1 3.7 -1.9
v 2.1 3.8 -1.9
v 2.2 3.6 -1.9
v 2.2 3.7 -1.9
v 2.2 3.8 -1.9
v 2.3 3.4 -1.9
v 2.3 3.6 -1.9
v 2.3 3.7 -1.9
v 2.4 2.6 -1.9
v 2.4 3.2 -1.9
v 2.4 3.3 -1.9
v 2.4 3.6 -1.9
v 2.5 3.2 -1.9
v 2.5 3.3 -1.9
v 1.1 3.4 -2
v 1.1 3.6 -2
v 1.2 3.6 -2
v 1.2 3.7 -2
v 1.3 3.6 -2
v 1.3 3.7 -2
v 1.4 3.4 -2
v 1.4 3.6 -2
v 2 3.4 -2
v 2 3.6 -2
v 2.1 3.6 -2
v 2.1 3.7 -2
v 2.2 3.6 -2
v 2.2 3.7 -2
v 2.3 3.4 -2
v 2.3 3.6 -2
v 1.1 2 -1.2
v 1.1 2.2 -1.2
v 1.4 2 -1.2
v 1.4 2.2 -1.2
v 2 2 -1.2
v 2 2.2 -1.2
v 2.3 2 -1.2
v 2.3 2.2 -1.2
v 1.1 2 -1.9
v 1.1 2.2 -1.9
v 1.4 2 -1.9
v 1.4 2.2 -1.9
v 2 2 -1.9
v 2 2.2 -1.9
v 2.3 2 -1.9
v 2.3 2.2 -1.9
v 0.9 2.2 -2
v 0.9 2.3 -2
v 1 2.2 -2
v 1 2.3 -2
v 2.4 2.2 -2
v 2.4 2.3 -2
v 2.5 2.2 -2
v 2.5 2.3 -2
v 0.9 2.3 -2.1
v 0.9 3.3 -2.1
v 1 2.2 -2.1
v 1 2.3 -2.1
v 1 3.3 -2.1
v 1 3.6 -2.1
v 1.1 3.4 -2.1
v 1.1 3.6 -2.1
v 1.1 3.7 -2.1
v 1.2 3.6 -2.1
v 1.2 3.7 -2.1
v 1.2 3.8 -2.1
v 1.3 3.6 -2.1
v 1.3 3.7 -2.1
v 1.3 3.8 -2.1
v 1.4 3.4 -2.1
v 1.4 3.6 -2.1
v 1.4 3.7 -2.1
v 1.5 3.4 -2.1
v 1.5 3.6 -2.1
v 1.9 3.4 -2.1
v 1.9 3.6 -2.1
v 2 3.4 -2.1
v 2 3.6 -2.1
v 2 3.7 -2.1
v 2.1 3.6 -2.1
v 2.1 3.7 -2.1
v 2.1 3.8 -2.1
v 2.2 3.6 -2.1
v 2.2 3.7 -2.1
v 2.2 3.8 -2.1
v 2.3 3.4 -2.1
v 2.3 3.6 -2.1
v 2.3 3.7 -2.1
v 2.4 2.2 -2.1
v 2.4 2.3 -2.1
v 2.4 3.3 -2.1
v 2.4 3.6 -2.1
v 2.5 2.3 -2.1
v 2.5 3.3 -2.1
v 1.1 2 -0.9
v 1.4 2 -0.9
v 2 2 -0.9
v 2.3 2 -0.9
v 1.1 2 -1.2
v 1.4 2 -1.2
v 2 2 -1.2
v 2.3 2 -1.2
v 1.1 2 -1.6
v 1.4 2 -1.6
v 2 2 -1.6
v 2.3 2 -1.6
v 1.1 2 -1.9
v 1.4 2 -1.9
v 2 2 -1.9
v 2.3 2 -1.9
v 1 2.2 -0.8
v 2.4 2.2 -0.8
v 0.9 2.2 -0.9
v 1 2.2 -0.9
v 1.1 2.2 -0.9
v 1.4 2.2 -0.9
v 2 2.2 -0.9
v 2.3 2.2 -0.9
v 2.4 2.2 -0.9
v 2.5 2.2 -0.9
v 1.1 2.2 -1.2
v 1.4 2.2 -1.2
v 2 2.2 -1.2
v 2.3 2.2 -1.2
v 1.1 2.2 -1.6
v 1.4 2.2 -1.6
v 2 2.2 -1.6
v 2.3 2.2 -1.6
v 1.1 2.2 -1.9
v 1.4 2.2 -1.9
v 2 2.2 -1.9
v 2.3 2.2 -1.9
v 0.9 2.2 -2
v 1 2.2 -2
v 2.4 2.2 -2
v 2.5 2.2 -2
v 1 2.2 -2.1
v 2.4 2.2 -2.1
v 0.9 2.3 -2
v 1 2.3 -2
v 2.4 2.3 -2
v 2.5 2.3 -2
v 0.9 2.3 -2.1
v 1 2.3 -2.1
v 2.4 2.3 -2.1
v 2.5 2.3 -2.1
v 1.1 3.6 -1.9
v 1.2 3.6 -1.9
v 1.3 3.6 -1.9
v 1.4 3.6 -1.9
v 2 3.6 -1.9
v 2.1 3.6 -1.9
v 2.2 3.6 -1.9
v 2.3 3.6 -1.9
v 1.1 3.6 -2
v 1.2 3.6 -2
v 1.3 3.6 -2
v 1.4 3.6 -2
v 2 3.6 -2
v 2.1 3.6 -2
v 2.2 3.6 -2
v 2.3 3.6 -2
v 1.2 3.7 -1.9
v 1.3 3.7 -1.9
v 2.1 3.7 -1.9
v 2.2 3.7 -1.9
v 1.2 3.7 -2
v 1.3 3.7 -2
v 2.1 3.7 -2
v 2.2 3.7 -2
v 1 2.4 -0.8
v 2.4 2.4 -0.8
v 0.9 2.4 -0.9
v 1 2.4 -0.9
v 2.4 2.4 -0.9
v 2.5 2.4 -0.9
v 0.9 2.4 -1.1
v 1 2.4 -1.1
v 2.4 2.4 -1.1
v 2.5 2.4 -1.1
v 1 2.5 -0.9
v 2.4 2.5 -0.9
v 0.9 2.5 -1.1
v 1 2.5 -1.1
v 2.4 2.5 -1.1
v 2.5 2.5 -1.1
v 0.9 2.5 -1.2
v 1 2.5 -1.2
v 2.4 2.5 -1.2
v 2.5 2.5 -1.2
v 1 2.6 -1.1
v 2.4 2.6 -1.1
v 0.9 2.6 -1.2
v 1 2.6 -1.2
v 2.4 2.6 -1.2
v 2.5 2.6 -1.2
v 0.9 2.6 -1.3
v 1 2.6 -1.3
v 2.4 2.6 -1.3
v 2.5 2.6 -1.3
v 1 2.6 -1.9
v 2.4 2.6 -1.9
v 0.9 2.7 -1.3
v 1 2.7 -1.3
v 2.4 2.7 -1.3
v 2.5 2.7 -1.3
v 0.9 2.7 -1.4
v 1 2.7 -1.4
v 2.4 2.7 -1.4
v 2.5 2.7 -1.4
v 0.9 2.8 -1.4
v 1 2.8 -1.4
v 2.4 2.8 -1.4
v 2.5 2.8 -1.4
v 0.9 2.8 -1.5
v 1 2.8 -1.5
v 2.4 2.8 -1.5
v 2.5 2.8 -1.5
v 0.9 2.9 -1.5
v 1 2.9 -1.5
v 2.4 2.9 -1.5
v 2.5 2.9 -1.5
v 0.9 2.9 -1.6
v 1 2.9 -1.6
v 2.4 2.9 -1.6
v 2.5 2.9 -1.6
v 0.9 3 -1.6
v 1 3 -1.6
v 2.4 3 -1.6
v 2.5 3 -1.6
v 0.9 3 -1.7
v 1 3 -1.7
v 2.4 3 -1.7
v 2.5 3 -1.7
v 0.9 3.1 -1.7
v 1 3.1 -1.7
v 2.4 3.1 -1.7
v 2.5 3.1 -1.7
v 0.9 3.1 -1.8
v 1 3.1 -1.8
v 2.4 3.1 -1.8
v 2.5 3.1 -1.8
v 0.9 3.2 -1.8
v 1 3.2 -1.8
v 2.4 3.2 -1.8
v 2.5 3.2 -1.8
v 0.9 3.2 -1.9
v 1 3.2 -1.9
v 2.4 3.2 -1.9
v 2.5 3.2 -1.9
v 0.9 3.3 -1.9
v 1 3.3 -1.9
v 2.4 3.3 -1.9
v 2.5 3.3 -1.9
v 0.9 3.3 -2.1
v 1 3.3 -2.1
v 2.4 3.3 -2.1
v 2.5 3.3 -2.1
v 1.1 3.4 -1.9
v 1.4 3.4 -1.9
v 1.5 3.4 -1.9
v 1.9 3.4 -1.9
v 2 3.4 -1.9
v 2.3 3.4 -1.9
v 1.1 3.4 -2
v 1.4 3.4 -2
v 2 3.4 -2
v 2.3 3.4 -2
v 1.5 3.4 -2.1
v 1.9 3.4 -2.1
v 1 3.6 -1.9
v 1.1 3.6 -1.9
v 1.4 3.6 -1.9
v 1.5 3.6 -1.9
v 1.9 3.6 -1.9
v 2 3.6 -1.9
v 2.3 3.6 -1.9
v 2.4 3.6 -1.9
v 1 3.6 -2.1
v 1.1 3.6 -2.1
v 1.4 3.6 -2.1
v 1.5 3.6 -2.1
v 1.9 3.6 -2.1
v 2 3.6 -2.1
v 2.3 3.6 -2.1
v 2.4 3.6 -2.1
v 1.1 3.7 -1.9
v 1.2 3.7 -1.9
v 1.3 3.7 -1.9
v 1.4 3.7 -1.9
v 2 3.7 -1.9
v 2.1 3.7 -1.9
v 2.2 3.7 -1.9
v 2.3 3.7 -1.9
v 1.1 3.7 -2.1
v 1.2 3.7 -2.1
v 1.3 3.7 -2.1
v 1.4 3.7 -2.1
v 2 3.7 -2.1
v 2.1 3.7 -2.1
v 2.2 3.7 -2.1
v 2.3 3.7 -2.1
v 1.2 3.8 -1.9
v 1.3 3.8 -1.9
v 2.1 3.8 -1.9
v 2.2 3.8 -1.9
v 1.2 3.8 -2.1
v 1.3 3.8 -2.1
v 2.1 3.8 -2.1
v 2.2 3.8 -2.1

# faces
f 3/2/1 2/2/1 1/2/1
f 5/2/1 3/2/1 1/2/1
f 5/2/1 4/2/1 3/2/1
f 6/2/1 4/2/1 5/2/1
f 7/2/1 4/2/1 6/2/1
f 8/2/1 4/2/1 7/2/1
f 9/2/1 4/2/1 8/2/1
f 10/2/1 4/2/1 9/2/1
f 11/2/1 4/2/1 10/2/1
f 12/2/1 4/2/1 11/2/1
f 13/2/1 4/2/1 12/2/1
f 14/2/1 4/2/1 13/2/1
f 15/2/1 4/2/1 14/2/1
f 16/2/1 4/2/1 15/2/1
f 17/2/1 4/2/1 16/2/1
f 18/2/1 4/2/1 17/2/1
f 19/2/1 4/2/1 18/2/1
f 20/2/1 4/2/1 19/2/1
f 21/2/1 4/2/1 20/2/1
f 22/2/1 4/2/1 21/2/1
f 23/2/1 4/2/1 22/2/1
f 24/2/1 4/2/1 23/2/1
f 29/2/1 28/2/1 27/2/1
f 30/2/1 28/2/1 29/2/1
f 31/2/1 26/2/1 25/2/1
f 32/2/1 26/2/1 31/2/1
f 34/1/1 33/1/1 32/1/1
f 35/1/1 33/1/1 34/1/1
f 37/1/1 36/1/1 35/1/1
f 38/1/1 36/1/1 37/1/1
f 41/2/1 40/2/1 39/2/1
f 42/2/1 40/2/1 41/2/1
f 47/3/1 44/3/1 43/3/1
f 48/3/1 44/3/1 47/3/1
f 49/3/1 46/3/1 45/3/1
f 50/3/1 46/3/1 49/3/1
f 53/2/1 52/2/1 51/2/1
f 54/2/1 52/2/1 53/2/1
f 57/2/1 56/2/1 55/2/1
f 58/2/1 56/2/1 57/2/1
f 61/2/1 60/2/1 59/2/1
f 62/2/1 60/2/1 61/2/1
f 65/2/1 64/2/1 63/2/1
f 66/2/1 64/2/1 65/2/1
f 69/2/1 68/2/1 67/2/1
f 70/2/1 68/2/1 69/2/1
f 75/3/1 72/3/1 71/3/1
f 76/3/1 72/3/1 75/3/1
f 77/3/1 74/3/1 73/3/1
f 78/3/1 74/3/1 77/3/1
f 81/2/1 80/2/1 79/2/1
f 82/2/1 80/2/1 81/2/1
f 85/2/1 84/2/1 83/2/1
f 86/2/1 84/2/1 85/2/1
f 89/2/1 88/2/1 87/2/1
f 90/2/1 88/2/1 89/2/1
f 93/2/1 92/2/1 91/2/1
f 94/2/1 92/2/1 93/2/1
f 97/2/1 96/2/1 95/2/1
f 98/2/1 96/2/1 97/2/1
f 99/2/1 96/2/1 98/2/1
f 100/2/1 96/2/1 99/2/1
f 101/2/1 96/2/1 100/2/1
f 102/2/1 96/2/1 101/2/1
f 103/2/1 96/2/1 102/2/1
f 104/2/1 96/2/1 103/2/1
f 105/2/1 96/2/1 104/2/1
f 106/2/1 96/2/1 105/2/1
f 107/2/1 96/2/1 106/2/1
f 108/2/1 96/2/1 107/2/1
f 109/2/2 110/2/2 111/2/2
f 111/2/2 110/2/2 112/2/2
f 112/2/2 110/2/2 113/2/2
f 113/2/2 110/2/2 114/2/2
f 114/2/2 110/2/2 115/2/2
f 115/2/2 110/2/2 116/2/2
f 116/2/2 110/2/2 117/2/2
f 117/2/2 110/2/2 118/2/2
f 118/2/2 110/2/2 119/2/2
f 119/2/2 110/2/2 120/2/2
f 120/2/2 110/2/2 121/2/2
f 121/2/2 110/2/2 122/2/2
f 123/2/2 124/2/2 125/2/2
f 125/2/2 124/2/2 126/2/2
f 127/2/2 128/2/2 129/2/2
f 129/2/2 128/2/2 130/2/2
f 131/2/2 132/2/2 133/2/2
f 133/2/2 132/2/2 134/2/2
f 135/3/2 136/3/2 139/3/2
f 139/3/2 136/3/2 140/3/2
f 137/3/2 138/3/2 141/3/2
f 141/3/2 138/3/2 142/3/2
f 143/2/2 144/2/2 145/2/2
f 145/2/2 144/2/2 146/2/2
f 147/2/2 148/2/2 149/2/2
f 149/2/2 148/2/2 150/2/2
f 151/2/2 152/2/2 153/2/2
f 153/2/2 152/2/2 154/2/2
f 155/2/2 156/2/2 157/2/2
f 157/2/2 156/2/2 158/2/2
f 159/2/2 160/2/2 161/2/2
f 161/2/2 160/2/2 162/2/2
f 163/3/2 164/3/2 167/3/2
f 167/3/2 164/3/2 168/3/2
f 165/3/2 166/3/2 169/3/2
f 169/3/2 166/3/2 170/3/2
f 171/2/2 172/2/2 173/2/2
f 173/2/2 172/2/2 174/2/2
f 177/2/2 178/2/2 179/2/2
f 179/2/2 178/2/2 180/2/2
f 175/2/2 176/2/2 181/2/2
f 181/2/2 176/2/2 182/2/2
f 182/1/2 183/1/2 184/1/2
f 184/1/2 183/1/2 185/1/2
f 185/1/2 186/1/2 187/1/2
f 187/1/2 186/1/2 188/1/2
f 189/2/2 190/2/2 191/2/2
f 191/2/2 190/2/2 192/2/2
f 193/2/2 194/2/2 195/2/2
f 193/2/2 195/2/2 197/2/2
f 195/2/2 196/2/2 197/2/2
f 197/2/2 196/2/2 198/2/2
f 198/2/2 196/2/2 199/2/2
f 199/2/2 196/2/2 200/2/2
f 200/2/2 196/2/2 201/2/2
f 201/2/2 196/2/2 202/2/2
f 202/2/2 196/2/2 203/2/2
f 203/2/2 196/2/2 204/2/2
f 204/2/2 196/2/2 205/2/2
f 205/2/2 196/2/2 206/2/2
f 206/2/2 196/2/2 207/2/2
f 207/2/2 196/2/2 208/2/2
f 208/2/2 196/2/2 209/2/2
f 209/2/2 196/2/2 210/2/2
f 210/2/2 196/2/2 211/2/2
f 211/2/2 196/2/2 212/2/2
f 212/2/2 196/2/2 213/2/2
f 213/2/2 196/2/2 214/2/2
f 214/2/2 196/2/2 215/2/2
f 215/2/2 196/2/2 216/2/2
f 219/2/3 218/2/3 217/2/3
f 220/2/3 218/2/3 219/2/3
f 223/2/3 222/2/3 221/2/3
f 224/2/3 222/2/3 223/2/3
f 228/3/3 227/3/3 226/3/3
f 229/3/3 227/3/3 228/3/3
f 232/3/3 231/3/3 230/3/3
f 233/3/3 231/3/3 232/3/3
f 235/1/3 225/1/3 224/1/3
f 236/1/3 225/1/3 235/1/3
f 237/2/3 235/2/3 234/2/3
f 238/2/3 235/2/3 237/2/3
f 241/2/3 240/2/3 239/2/3
f 242/2/3 240/2/3 241/2/3
f 245/1/3 243/1/3 242/1/3
f 246/1/3 243/1/3 245/1/3
f 247/2/3 245/2/3 244/2/3
f 248/2/3 245/2/3 247/2/3
f 251/2/3 250/2/3 249/2/3
f 252/2/3 250/2/3 251/2/3
f 255/2/3 254/2/3 253/2/3
f 256/2/3 254/2/3 255/2/3
f 259/2/3 258/2/3 257/2/3
f 260/2/3 258/2/3 259/2/3
f 263/2/3 262/2/3 261/2/3
f 264/2/3 262/2/3 263/2/3
f 267/2/3 266/2/3 265/2/3
f 268/2/3 266/2/3 267/2/3
f 271/2/3 270/2/3 269/2/3
f 272/2/3 270/2/3 271/2/3
f 275/2/3 274/2/3 273/2/3
f 276/2/3 274/2/3 275/2/3
f 279/2/3 278/2/3 277/2/3
f 280/2/3 278/2/3 279/2/3
f 283/2/3 282/2/3 281/2/3
f 284/2/3 282/2/3 283/2/3
f 287/3/3 286/3/3 285/3/3
f 288/3/3 286/3/3 287/3/3
f 291/3/3 290/3/3 289/3/3
f 292/3/3 290/3/3 291/3/3
f 295/2/3 294/2/3 293/2/3
f 296/2/3 294/2/3 295/2/3
f 299/2/3 298/2/3 297/2/3
f 300/2/3 298/2/3 299/2/3
f 303/2/3 302/2/3 301/2/3
f 304/2/3 302/2/3 303/2/3
f 307/2/3 306/2/3 305/2/3
f 308/2/3 306/2/3 307/2/3
f 311/2/3 310/2/3 309/2/3
f 312/2/3 310/2/3 311/2/3
f 316/2/3 314/2/3 313/2/3
f 317/2/3 314/2/3 316/2/3
f 319/2/3 316/2/3 315/2/3
f 319/2/3 318/2/3 317/2/3
f 319/2/3 317/2/3 316/2/3
f 320/2/3 318/2/3 319/2/3
f 322/2/3 321/2/3 320/2/3
f 323/2/3 321/2/3 322/2/3
f 326/2/3 324/2/3 323/2/3
f 327/2/3 324/2/3 326/2/3
f 328/2/3 319/2/3 315/2/3
f 329/2/3 326/2/3 325/2/3
f 330/2/3 326/2/3 329/2/3
f 331/2/3 328/2/3 315/2/3
f 331/2/3 329/2/3 328/2/3
f 332/2/3 329/2/3 331/2/3
f 333/2/3 331/2/3 315/2/3
f 335/2/3 333/2/3 315/2/3
f 335/2/3 334/2/3 333/2/3
f 336/2/3 334/2/3 335/2/3
f 338/2/3 337/2/3 336/2/3
f 339/2/3 337/2/3 338/2/3
f 342/2/3 340/2/3 339/2/3
f 343/2/3 340/2/3 342/2/3
f 344/2/3 335/2/3 315/2/3
f 345/2/3 342/2/3 341/2/3
f 346/2/3 342/2/3 345/2/3
f 347/2/3 344/2/3 315/2/3
f 347/2/3 345/2/3 344/2/3
f 348/2/3 345/2/3 347/2/3
f 349/2/3 345/2/3 348/2/3
f 350/2/3 345/2/3 349/2/3
f 351/2/3 349/2/3 348/2/3
f 352/2/3 349/2/3 351/2/3
f 355/1/3 354/1/3 353/1/3
f 357/1/3 355/1/3 353/1/3
f 357/1/3 356/1/3 355/1/3
f 358/1/3 356/1/3 357/1/3
f 359/1/3 357/1/3 353/1/3
f 360/1/3 357/1/3 359/1/3
f 363/1/3 362/1/3 361/1/3
f 365/1/3 363/1/3 361/1/3
f 365/1/3 364/1/3 363/1/3
f 366/1/3 364/1/3 365/1/3
f 367/1/3 365/1/3 361/1/3
f 368/1/3 365/1/3 367/1/3
f 369/3/4 370/3/4 371/3/4
f 371/3/4 370/3/4 372/3/4
f 373/3/4 374/3/4 375/3/4
f 375/3/4 374/3/4 376/3/4
f 377/3/4 378/3/4 379/3/4
f 379/3/4 378/3/4 380/3/4
f 381/3/4 382/3/4 383/3/4
f 383/3/4 382/3/4 384/3/4
f 385/2/4 386/2/4 387/2/4
f 387/2/4 386/2/4 388/2/4
f 389/2/4 390/2/4 391/2/4
f 391/2/4 390/2/4 392/2/4
f 393/2/4 394/2/4 396/2/4
f 396/2/4 394/2/4 397/2/4
f 395/2/4 396/2/4 399/2/4
f 397/2/4 398/2/4 399/2/4
f 396/2/4 397/2/4 399/2/4
f 399/2/4 398/2/4 400/2/4
f 399/1/4 400/1/4 402/1/4
f 400/2/4 401/2/4 402/2/4
f 402/2/4 401/2/4 403/2/4
f 399/1/4 402/1/4 405/1/4
f 402/1/4 403/1/4 405/1/4
f 403/2/4 404/2/4 406/2/4
f 405/1/4 403/1/4 406/1/4
f 406/2/4 404/2/4 407/2/4
f 395/2/4 399/2/4 408/2/4
f 399/1/4 405/1/4 408/1/4
f 405/2/4 406/2/4 409/2/4
f 408/1/4 405/1/4 409/1/4
f 409/2/4 406/2/4 410/2/4
f 395/2/4 408/2/4 411/2/4
f 408/2/4 409/2/4 411/2/4
f 411/2/4 409/2/4 412/2/4
f 395/2/4 411/2/4 413/2/4
f 395/2/4 413/2/4 415/2/4
f 413/2/4 414/2/4 415/2/4
f 415/2/4 414/2/4 416/2/4
f 415/1/4 416/1/4 418/1/4
f 416/2/4 417/2/4 418/2/4
f 418/2/4 417/2/4 419/2/4
f 418/1/4 419/1/4 421/1/4
f 415/1/4 418/1/4 421/1/4
f 419/2/4 420/2/4 422/2/4
f 421/1/4 419/1/4 422/1/4
f 422/2/4 420/2/4 423/2/4
f 415/1/4 421/1/4 424/1/4
f 395/2/4 415/2/4 424/2/4
f 421/2/4 422/2/4 425/2/4
f 424/1/4 421/1/4 425/1/4
f 425/2/4 422/2/4 426/2/4
f 395/2/4 424/2/4 427/2/4
f 424/2/4 425/2/4 427/2/4
f 427/2/4 425/2/4 428/2/4
f 428/2/4 425/2/4 429/2/4
f 429/2/4 425/2/4 430/2/4
f 428/2/4 429/2/4 431/2/4
f 431/2/4 429/2/4 432/2/4
f 437/3/5 434/3/5 433/3/5
f 438/3/5 434/3/5 437/3/5
f 439/3/5 436/3/5 435/3/5
f 440/3/5 436/3/5 439/3/5
f 445/3/5 442/3/5 441/3/5
f 446/3/5 442/3/5 445/3/5
f 447/3/5 444/3/5 443/3/5
f 448/3/5 444/3/5 447/3/5
f 452/2/5 450/2/5 449/2/5
f 453/2/5 450/2/5 452/2/5
f 454/2/5 450/2/5 453/2/5
f 455/2/5 450/2/5 454/2/5
f 456/2/5 450/2/5 455/2/5
f 457/2/5 450/2/5 456/2/5
f 459/2/5 452/2/5 451/2/5
f 459/2/5 453/2/5 452/2/5
f 460/2/5 455/2/5 454/2/5
f 461/2/5 455/2/5 460/2/5
f 462/2/5 458/2/5 457/2/5
f 462/2/5 457/2/5 456/2/5
f 463/2/5 461/2/5 460/2/5
f 463/2/5 462/2/5 461/2/5
f 463/2/5 460/2/5 459/2/5
f 463/2/5 459/2/5 451/2/5
f 464/2/5 462/2/5 463/2/5
f 465/2/5 462/2/5 464/2/5
f 466/2/5 458/2/5 462/2/5
f 466/2/5 462/2/5 465/2/5
f 467/2/5 463/2/5 451/2/5
f 468/2/5 465/2/5 464/2/5
f 469/2/5 465/2/5 468/2/5
f 470/2/5 458/2/5 466/2/5
f 471/2/5 467/2/5 451/2/5
f 471/2/5 470/2/5 469/2/5
f 471/2/5 469/2/5 468/2/5
f 471/2/5 468/2/5 467/2/5
f 472/2/5 470/2/5 471/2/5
f 473/2/5 458/2/5 470/2/5
f 473/2/5 470/2/5 472/2/5
f 474/2/5 458/2/5 473/2/5
f 475/2/5 473/2/5 472/2/5
f 476/2/5 473/2/5 475/2/5
f 481/2/5 478/2/5 477/2/5
f 482/2/5 478/2/5 481/2/5
f 483/2/5 480/2/5 479/2/5
f 484/2/5 480/2/5 483/2/5
f 493/2/5 486/2/5 485/2/5
f 494/2/5 486/2/5 493/2/5
f 495/2/5 488/2/5 487/2/5
f 496/2/5 488/2/5 495/2/5
f 497/2/5 490/2/5 489/2/5
f 498/2/5 490/2/5 497/2/5
f 499/2/5 492/2/5 491/2/5
f 500/2/5 492/2/5 499/2/5
f 505/2/5 502/2/5 501/2/5
f 506/2/5 502/2/5 505/2/5
f 507/2/5 504/2/5 503/2/5
f 508/2/5 504/2/5 507/2/5
f 509/2/6 510/2/6 512/2/6
f 512/2/6 510/2/6 513/2/6
f 511/2/6 512/2/6 515/2/6
f 515/2/6 512/2/6 516/2/6
f 513/2/6 514/2/6 517/2/6
f 517/2/6 514/2/6 518/2/6
f 519/1/6 520/1/6 522/1/6
f 522/1/6 520/1/6 523/1/6
f 521/2/6 522/2/6 525/2/6
f 525/2/6 522/2/6 526/2/6
f 523/2/6 524/2/6 527/2/6
f 527/2/6 524/2/6 528/2/6
f 529/1/6 530/1/6 532/1/6
f 532/1/6 530/1/6 533/1/6
f 531/2/6 532/2/6 535/2/6
f 532/1/6 533/1/6 536/1/6
f 535/2/6 532/2/6 536/2/6
f 533/2/6 534/2/6 537/2/6
f 536/1/6 533/1/6 537/1/6
f 537/2/6 534/2/6 538/2/6
f 536/1/6 537/1/6 539/1/6
f 539/1/6 537/1/6 540/1/6
f 541/2/6 542/2/6 545/2/6
f 545/2/6 542/2/6 546/2/6
f 543/2/6 544/2/6 547/2/6
f 547/2/6 544/2/6 548/2/6
f 549/2/6 550/2/6 553/2/6
f 553/2/6 550/2/6 554/2/6
f 551/2/6 552/2/6 555/2/6
f 555/2/6 552/2/6 556/2/6
f 557/2/6 558/2/6 561/2/6
f 561/2/6 558/2/6 562/2/6
f 559/2/6 560/2/6 563/2/6
f 563/2/6 560/2/6 564/2/6
f 565/2/6 566/2/6 569/2/6
f 569/2/6 566/2/6 570/2/6
f 567/2/6 568/2/6 571/2/6
f 571/2/6 568/2/6 572/2/6
f 573/2/6 574/2/6 577/2/6
f 577/2/6 574/2/6 578/2/6
f 575/2/6 576/2/6 579/2/6
f 579/2/6 576/2/6 580/2/6
f 581/2/6 582/2/6 585/2/6
f 585/2/6 582/2/6 586/2/6
f 583/2/6 584/2/6 587/2/6
f 587/2/6 584/2/6 588/2/6
f 589/2/6 590/2/6 593/2/6
f 593/2/6 590/2/6 594/2/6
f 591/2/6 592/2/6 595/2/6
f 595/2/6 592/2/6 596/2/6
f 597/2/6 598/2/6 603/2/6
f 603/2/6 598/2/6 604/2/6
f 601/2/6 602/2/6 605/2/6
f 605/2/6 602/2/6 606/2/6
f 599/2/6 600/2/6 607/2/6
f 607/2/6 600/2/6 608/2/6
f 609/2/6 610/2/6 617/2/6
f 617/2/6 610/2/6 618/2/6
f 611/2/6 612/2/6 619/2/6
f 619/2/6 612/2/6 620/2/6
f 613/2/6 614/2/6 621/2/6
f 621/2/6 614/2/6 622/2/6
f 615/2/6 616/2/6 623/2/6
f 623/2/6 616/2/6 624/2/6
f 625/2/6 626/2/6 633/2/6
f 633/2/6 626/2/6 634/2/6
f 627/2/6 628/2/6 635/2/6
f 635/2/6 628/2/6 636/2/6
f 629/2/6 630/2/6 637/2/6
f 637/2/6 630/2/6 638/2/6
f 631/2/6 632/2/6 639/2/6
f 639/2/6 632/2/6 640/2/6
f 641/2/6 642/2/6 645/2/6
f 645/2/6 642/2/6 646/2/6
f 643/2/6 644/2/6 647/2/6
f 647/2/6 644/2/6 648/2/6
